<svg xmlns="http://www.w3.org/2000/svg" width="307.252" height="36" viewBox="0 0 307.252 36">
  <g id="freecodecamp" transform="translate(0.5 0.5)">
    <path id="Tracé_21" data-name="Tracé 21" d="M38.55,5.578l.627.073.612.117.569.131.54.175.525.2.467.233.452.262.408.306.394.321.35.35.321.394.292.408.263.452.233.481.19.51.175.54.131.569.117.6.073.642.044.656.015.685v.335l-.015.146-.058.292-.058.263-.044.117-.1.219-.058.087-.073.088-.058.087-.088.073-.073.073-.088.044-.088.058-.1.044-.117.029-.1.029-.233.029H31.011v-.1h-.029V18.28l.015.35.044.35.044.335.087.321.1.292.131.292.146.248.175.263.19.219.219.233.248.19.263.19.292.16.306.16.335.131.35.131.394.087.394.1.437.073.452.044.467.044.5.029.525.015h.19l.19-.015h.19l.175-.015h.19l.35-.029.335-.029.16-.015.16-.029.306-.044.146-.015.146-.029.423-.087.131-.044.131-.029.117-.044.131-.044.117-.044.073-.015.219-.087.088-.044.088-.029.175-.087.306-.16.117-.058.1-.073.248-.131.117-.073.131-.073.131-.087.277-.19.146-.087.146-.1.16-.1.175-.175.19-.146.088-.073.073-.058.088-.058.073-.073.131-.1.146-.088.058-.044.058-.029.058-.044.1-.044.044-.015.058-.015.029-.015.073-.015h.131l.146.015.219.044.058.029.1.058.058.044.131.131.044.058.058.117.015.073.029.073.015.087.029.146V20.8l-.015.1-.015.087-.015.1-.088.292-.044.087-.058.1-.044.1-.058.1-.073.1-.073.087-.146.2-.19.19-.19.2-.233.2-.131.087-.117.117-.219.146-.219.16-.467.292-.248.131-.263.131-.263.117-.277.1-.277.117-.306.1-.612.175-.321.073-.335.073-.685.131-.729.087-.758.058-.394.015-.408.015H36.3l-.685-.044-.656-.058-.612-.1-.6-.1-.554-.131-.525-.16-.5-.19-.452-.219-.437-.233-.394-.262-.379-.292-.321-.306-.306-.335-.277-.365-.233-.379-.2-.423-.19-.423-.146-.467-.1-.5-.087-.51-.044-.54-.015-.569V11.426l.015-.2.015-.175.015-.19.058-.379.058-.19.044-.175.117-.35.146-.35.175-.335.088-.16.1-.175.117-.146.117-.16.117-.146.131-.16.277-.292.335-.335.438-.35.219-.16.248-.16.248-.146.248-.131.263-.131.554-.233.292-.1.613-.175.321-.073.335-.073.321-.058.35-.044.35-.058.35-.029.365-.029.758-.029h.394l.685.015.685.044ZM35.575,7.912l-.6.1-.569.146-.554.19-.54.219-.51.263-.467.365-.394.379-.335.408-.277.437-.19.452-.117.467-.044.51v1.4H42.925l-.131-1.429-.365-1.21L41.8,9.6l-.875-.773-1.108-.554-1.385-.335-1.619-.1-.627.015-.612.058Z" transform="translate(13.104 2.53)" fill="#fff"/>
    <path id="Tracé_22" data-name="Tracé 22" d="M38.55,5.578l.627.073.612.117.569.131.54.175.525.2.467.233.452.262.408.306.394.321.35.35.321.394.292.408.263.452.233.481.19.51.175.54.131.569.117.6.073.642.044.656.015.685v.335l-.015.146-.058.292-.058.263-.044.117-.1.219-.058.087-.073.088-.058.087-.088.073-.073.073-.088.044-.088.058-.1.044-.117.029-.1.029-.233.029H31.011v-.1h-.029V18.28l.015.35.044.35.044.335.087.321.1.292.131.292.146.248.175.263.19.219.219.233.248.19.263.19.292.16.306.16.335.131.35.131.394.087.394.1.437.073.452.044.467.044.5.029.525.015h.19l.19-.015h.19l.175-.015h.19l.35-.029.335-.029.16-.015.16-.029.306-.044.146-.015.146-.029.423-.087.131-.044.131-.029.117-.044.131-.044.117-.044.073-.015.219-.087.088-.044.088-.029.175-.087.306-.16.117-.058.1-.073.248-.131.117-.073.131-.073.131-.087.277-.19.146-.087.146-.1.16-.1.175-.175.19-.146.088-.073.073-.058.088-.058.073-.073.131-.1.146-.088.058-.044.058-.029.058-.044.1-.044.044-.015.058-.015.029-.015.073-.015h.131l.146.015.219.044.058.029.1.058.058.044.131.131.044.058.058.117.015.073.029.073.015.087.029.146V20.8l-.015.1-.015.087-.015.1-.088.292-.044.087-.058.1-.044.1-.058.1-.073.1-.073.087-.146.2-.19.19-.19.2-.233.2-.131.087-.117.117-.219.146-.219.16-.467.292-.248.131-.263.131-.263.117-.277.1-.277.117-.306.1-.612.175-.321.073-.335.073-.685.131-.729.087-.758.058-.394.015-.408.015H36.3l-.685-.044-.656-.058-.612-.1-.6-.1-.554-.131-.525-.16-.5-.19-.452-.219-.437-.233-.394-.262-.379-.292-.321-.306-.306-.335-.277-.365-.233-.379-.2-.423-.19-.423-.146-.467-.1-.5-.087-.51-.044-.54-.015-.569V11.426l.015-.2.015-.175.015-.19.058-.379.058-.19.044-.175.117-.35.146-.35.175-.335.088-.16.1-.175.117-.146.117-.16.117-.146.131-.16.277-.292.335-.335.438-.35.219-.16.248-.16.248-.146.248-.131.263-.131.554-.233.292-.1.613-.175.321-.073.335-.073.321-.058.35-.044.35-.058.35-.029.365-.029.758-.029h.394l.685.015.685.044ZM35.575,7.912l-.6.1-.569.146-.554.19-.54.219-.51.263-.467.365-.394.379-.335.408-.277.437-.19.452-.117.467-.044.51v1.4H42.925l-.131-1.429-.365-1.21L41.8,9.6l-.875-.773-1.108-.554-1.385-.335-1.619-.1-.627.015-.612.058Z" transform="translate(13.104 2.53)" fill="rgba(0,0,0,0)" stroke="rgba(0,0,0,0)" stroke-width="1"/>
    <path id="Tracé_23" data-name="Tracé 23" d="M110.345,5.578l.627.073.612.117.569.131.54.175.51.2.481.233.452.262.423.306.379.321.35.35.321.394.306.408.248.452.233.481.2.51.16.54.146.569.1.6.073.642.044.656.015.685v.175l-.015.16-.029.292-.029.146-.029.131-.044.131-.029.117-.044.1-.058.117-.058.087-.146.175-.146.146-.19.1-.19.073-.117.029-.233.029-13.008.015V18.28l.015.35.029.35.058.335.087.321.1.292.117.292.16.248.16.263.2.219.219.233.248.19.262.19.277.16.321.16.335.131.35.131.379.087.408.1.438.073.452.044.467.044.5.029.525.015h.19l.19-.015h.19l.365-.015.35-.029.321-.029.175-.015.16-.029.452-.058.292-.058.277-.058.131-.044.131-.029.131-.044.117-.044.19-.058.058-.029.087-.029.073-.029.087-.044.073-.029.1-.044.292-.146.2-.117.117-.073.117-.058.117-.073.262-.146.263-.175.292-.19.146-.1.16-.1.087-.088.1-.087.073-.073.1-.073.073-.073.087-.058.16-.131.073-.044.073-.058.058-.044.073-.044.058-.044.058-.029.058-.044.1-.044.175-.058h.233l.087.015.131.029.073.015.175.087.175.175.044.058.058.117.015.073.029.073.029.16.015.073V20.8l-.015.1-.015.087-.015.1-.058.2-.029.087-.044.087-.058.1-.044.1-.131.2L117,21.97l-.073.1-.16.2-.306.292-.335.292-.131.117-.438.306-.219.146-.248.146-.248.131-.263.131-.262.117-.277.1-.292.117-.292.1-.612.175-.321.073-.335.073-.335.058-.35.073-.729.087-.758.058-.8.029h-1.123l-.671-.044-.656-.058-.627-.1-.569-.1-.569-.131-.525-.16-.481-.19-.481-.219-.423-.233-.394-.263-.365-.292-.335-.306-.321-.335-.262-.365-.248-.379-.2-.423-.175-.423-.146-.467-.117-.5-.073-.51-.058-.54-.015-.569V11.616l.015-.19v-.2l.029-.175.015-.19.029-.19.073-.379.175-.525.146-.35.16-.335.1-.16.1-.175.1-.146.131-.16.117-.146.131-.16.277-.292.146-.146.2-.19.2-.175.219-.175.219-.16.248-.16.248-.146.248-.131.277-.131.262-.117.277-.117.292-.1.612-.175.642-.146.335-.058.335-.044.365-.058.35-.029.365-.029.758-.029h.394l.7.015.671.044ZM107.37,7.912l-.6.1-.569.146-.554.19-.54.219-.5.262-.5.365-.423.379-.335.408-.248.437-.19.452-.1.467-.044.51v1.4H114.72l-.131-1.429-.365-1.21L113.6,9.6l-.875-.773-1.108-.554-1.385-.335-1.619-.1-.627.015-.612.058Z" transform="translate(46.003 2.53)" fill="#fff"/>
    <path id="Tracé_24" data-name="Tracé 24" d="M110.345,5.578l.627.073.612.117.569.131.54.175.51.2.481.233.452.262.423.306.379.321.35.35.321.394.306.408.248.452.233.481.2.51.16.54.146.569.1.6.073.642.044.656.015.685v.175l-.015.16-.029.292-.029.146-.029.131-.044.131-.029.117-.044.1-.058.117-.058.087-.146.175-.146.146-.19.1-.19.073-.117.029-.233.029-13.008.015V18.28l.015.35.029.35.058.335.087.321.1.292.117.292.16.248.16.263.2.219.219.233.248.19.262.19.277.16.321.16.335.131.35.131.379.087.408.1.438.073.452.044.467.044.5.029.525.015h.19l.19-.015h.19l.365-.015.35-.029.321-.029.175-.015.16-.029.452-.058.292-.058.277-.058.131-.044.131-.029.131-.044.117-.044.19-.058.058-.029.087-.029.073-.029.087-.044.073-.029.1-.044.292-.146.2-.117.117-.073.117-.058.117-.073.262-.146.263-.175.292-.19.146-.1.16-.1.087-.088.1-.087.073-.073.1-.073.073-.073.087-.058.16-.131.073-.044.073-.058.058-.044.073-.044.058-.044.058-.029.058-.044.1-.044.175-.058h.233l.087.015.131.029.073.015.175.087.175.175.044.058.058.117.015.073.029.073.029.16.015.073V20.8l-.015.1-.015.087-.015.1-.058.2-.029.087-.044.087-.058.1-.044.1-.131.2L117,21.97l-.073.1-.16.2-.306.292-.335.292-.131.117-.438.306-.219.146-.248.146-.248.131-.263.131-.262.117-.277.1-.292.117-.292.1-.612.175-.321.073-.335.073-.335.058-.35.073-.729.087-.758.058-.8.029h-1.123l-.671-.044-.656-.058-.627-.1-.569-.1-.569-.131-.525-.16-.481-.19-.481-.219-.423-.233-.394-.263-.365-.292-.335-.306-.321-.335-.262-.365-.248-.379-.2-.423-.175-.423-.146-.467-.117-.5-.073-.51-.058-.54-.015-.569V11.616l.015-.19v-.2l.029-.175.015-.19.029-.19.073-.379.175-.525.146-.35.16-.335.1-.16.1-.175.1-.146.131-.16.117-.146.131-.16.277-.292.146-.146.2-.19.2-.175.219-.175.219-.16.248-.16.248-.146.248-.131.277-.131.262-.117.277-.117.292-.1.612-.175.642-.146.335-.058.335-.044.365-.058.35-.029.365-.029.758-.029h.394l.7.015.671.044ZM107.37,7.912l-.6.1-.569.146-.554.19-.54.219-.5.262-.5.365-.423.379-.335.408-.248.437-.19.452-.1.467-.044.51v1.4H114.72l-.131-1.429-.365-1.21L113.6,9.6l-.875-.773-1.108-.554-1.385-.335-1.619-.1-.627.015-.612.058Z" transform="translate(46.003 2.53)" fill="rgba(0,0,0,0)" stroke="rgba(0,0,0,0)" stroke-width="1"/>
    <path id="Tracé_25" data-name="Tracé 25" d="M203.68.248a1.047,1.047,0,0,0-.35.656c0,.423.5,1.006,1.415,1.94a18.056,18.056,0,0,1,5.746,13.635,19.27,19.27,0,0,1-5.979,14.6c-.831.744-1.167,1.327-1.167,1.823a1.539,1.539,0,0,0,.335.744,1.172,1.172,0,0,0,.744.335c.9,0,2.188-1.065,3.85-3.165,3.238-3.967,4.7-8.356,4.783-14.321S211.263,6.46,207.588,2.275C206.276.773,205.167,0,204.424,0a1.335,1.335,0,0,0-.744.248Z" transform="translate(93.193 0)" fill="#fff"/>
    <path id="Tracé_26" data-name="Tracé 26" d="M203.68.248a1.047,1.047,0,0,0-.35.656c0,.423.5,1.006,1.415,1.94a18.056,18.056,0,0,1,5.746,13.635,19.27,19.27,0,0,1-5.979,14.6c-.831.744-1.167,1.327-1.167,1.823a1.539,1.539,0,0,0,.335.744,1.172,1.172,0,0,0,.744.335c.9,0,2.188-1.065,3.85-3.165,3.238-3.967,4.7-8.356,4.783-14.321S211.263,6.46,207.588,2.275C206.276.773,205.167,0,204.424,0a1.335,1.335,0,0,0-.744.248Z" transform="translate(93.193 0)" fill="rgba(0,0,0,0)" stroke="rgba(0,0,0,0)" stroke-width="1"/>
    <path id="Tracé_27" data-name="Tracé 27" d="M129.265,2.228A6.2,6.2,0,0,1,131.788,7.4c0,.992-.423,1.488-1.254,1.488-.569,0-.992-.5-1.24-1.488a8.674,8.674,0,0,0-.9-2.362c-.758-1.313-2.348-1.925-4.842-1.925-2.173,0-3.675.5-4.579,1.575a7.2,7.2,0,0,0-1.327,4.754v8.677c0,2.26.5,3.835,1.415,4.827a6,6,0,0,0,4.667,1.648c3.252,0,5.162-1.152,5.571-3.413.175-.831.248-1.254.248-1.327a.991.991,0,0,1,.992-.744c.831,0,1.254.5,1.254,1.488a5.657,5.657,0,0,1-2.6,4.929,9.9,9.9,0,0,1-5.5,1.4,9.592,9.592,0,0,1-6.271-1.823c-1.692-1.167-2.523-3.15-2.523-5.746V8.921c0-5.5,2.844-8.181,8.677-8.181a10.021,10.021,0,0,1,5.688,1.488Z" transform="translate(52.663 0.339)" fill="#fff"/>
    <path id="Tracé_28" data-name="Tracé 28" d="M129.265,2.228A6.2,6.2,0,0,1,131.788,7.4c0,.992-.423,1.488-1.254,1.488-.569,0-.992-.5-1.24-1.488a8.674,8.674,0,0,0-.9-2.362c-.758-1.313-2.348-1.925-4.842-1.925-2.173,0-3.675.5-4.579,1.575a7.2,7.2,0,0,0-1.327,4.754v8.677c0,2.26.5,3.835,1.415,4.827a6,6,0,0,0,4.667,1.648c3.252,0,5.162-1.152,5.571-3.413.175-.831.248-1.254.248-1.327a.991.991,0,0,1,.992-.744c.831,0,1.254.5,1.254,1.488a5.657,5.657,0,0,1-2.6,4.929,9.9,9.9,0,0,1-5.5,1.4,9.592,9.592,0,0,1-6.271-1.823c-1.692-1.167-2.523-3.15-2.523-5.746V8.921c0-5.5,2.844-8.181,8.677-8.181a10.021,10.021,0,0,1,5.688,1.488Z" transform="translate(52.663 0.339)" fill="rgba(0,0,0,0)" stroke="rgba(0,0,0,0)" stroke-width="1"/>
    <path id="Tracé_29" data-name="Tracé 29" d="M14.247,7.065c0-.817.5-1.152,1.487-1.152h4.842c.831,0,1.24.744,1.24,2.1A6.79,6.79,0,0,1,26.57,5.49a4.176,4.176,0,0,1,3.252,1.254,4.57,4.57,0,0,1,1.167,3.34c0,.919-.423,1.415-1.167,1.415-.5,0-.831-.335-.992-.919a10.726,10.726,0,0,0-.583-1.823,2,2,0,0,0-1.823-.9,4.021,4.021,0,0,0-2.6.992,10.906,10.906,0,0,0-2.012,2.173V22.2h4.492c.992,0,1.5.423,1.5,1.167,0,.831-.51,1.254-1.5,1.254H15.618c-.992,0-1.488-.423-1.488-1.167,0-.831.5-1.167,1.488-1.167h3.675v-.1h.029V8.232H15.734c-.992,0-1.488-.408-1.488-1.167Z" transform="translate(6.476 2.516)" fill="#fff"/>
    <path id="Tracé_30" data-name="Tracé 30" d="M14.247,7.065c0-.817.5-1.152,1.487-1.152h4.842c.831,0,1.24.744,1.24,2.1A6.79,6.79,0,0,1,26.57,5.49a4.176,4.176,0,0,1,3.252,1.254,4.57,4.57,0,0,1,1.167,3.34c0,.919-.423,1.415-1.167,1.415-.5,0-.831-.335-.992-.919a10.726,10.726,0,0,0-.583-1.823,2,2,0,0,0-1.823-.9,4.021,4.021,0,0,0-2.6.992,10.906,10.906,0,0,0-2.012,2.173V22.2h4.492c.992,0,1.5.423,1.5,1.167,0,.831-.51,1.254-1.5,1.254H15.618c-.992,0-1.488-.423-1.488-1.167,0-.831.5-1.167,1.488-1.167h3.675v-.1h.029V8.232H15.734c-.992,0-1.488-.408-1.488-1.167Z" transform="translate(6.476 2.516)" fill="rgba(0,0,0,0)" stroke="rgba(0,0,0,0)" stroke-width="1"/>
    <path id="Tracé_31" data-name="Tracé 31" d="M101.612.058l.087.029.087.044.073.044.087.058.19.19.044.087.058.088.044.1.029.1.058.233.058.263.015.292V26.41l-.015.1v.1l-.058.19-.015.073-.044.087-.029.073-.087.131-.1.117-.073.044-.058.044-.073.044-.146.058-.087.029-.175.029-.1.015h-.16l-.19-.029-.058-.015-.058-.029-.058-.015-.044-.029-.044-.015-.044-.044-.044-.029-.087-.073-.029-.044-.1-.175-.015-.058-.029-.073-.015-.058-.029-.073v-.306l-.015-.058v-.058l-.015-.058v-.117l-.015-.073v-.131l-.015-.131v-.087l-.015-.058v-.248l-.015-.087v-.19l-.19.131-.19.117-.19.131-.35.2-.16.117-.175.1-.306.175-.146.087-.131.087-.146.073-.365.2-.2.117-.2.087-.175.073-.073.029-.131.058-.131.044-.131.029-.277.087-.583.117-.306.044-.321.044-.16.029L94.9,27.4h-.175l-.175.015h-.16l-.175.015h-.671l-.306-.015-.292-.015-.292-.029-.277-.015-.292-.044-.262-.029-.54-.1-.5-.117-.262-.073-.467-.146-.467-.175-.219-.1-.219-.087-.612-.35-.19-.117-.2-.146-.408-.321-.175-.16-.175-.19-.16-.175-.16-.19-.146-.2-.131-.2L86.547,24l-.1-.219-.1-.233-.087-.233-.073-.233-.073-.263-.058-.263-.044-.248-.029-.277-.044-.277-.015-.277v-7.6l.015-.277.044-.263.029-.262.044-.263.117-.5.073-.233.087-.233.088-.219.117-.219.1-.219.262-.408.292-.379.146-.175.35-.35.379-.321.2-.146.569-.35.219-.1.408-.2.452-.175.219-.073.481-.146.481-.117,1.05-.175.54-.044.554-.029H93.9l.365.029h.365l.175.029.175.015.321.029.321.058.16.015.306.058.146.029.131.029.408.117.131.044.131.058.117.044.131.044.117.058.131.044.131.058.146.073.248.131.423.233.131.073.423.277.292.2.131.1.583.467V1.735l.015-.146V1.3l.058-.263.015-.117L100.168.8,100.2.7l.044-.1.044-.087.058-.088L100.4.365l.058-.073.058-.058.073-.058.146-.088.087-.029.19-.044L101.1,0h.2l.1.015.2.044ZM93.3,10.544l-.379.044-.379.029-.365.073-.35.073-.335.073-.613.233L90.6,11.2l-.262.146-.292.219-.292.233-.248.248-.219.248-.2.277-.16.292-.146.292-.117.335-.073.335-.058.335-.015.379v6.592l.015.379.044.365.073.335.1.335.131.306.175.292.19.277.233.248.248.233.292.2.321.2.277.131.612.233.321.1.321.087.35.087.365.058.379.058.394.044.817.029.685-.015.642-.058.627-.087.306-.058.292-.087.554-.175.248-.1.2-.146.233-.16.219-.16.233-.175.248-.175.233-.19.263-.19.248-.219.262-.219.525-.467v-9.61l-.306-.233-.306-.2-.292-.2L99,12.017l-.277-.175-.262-.16-.248-.16-.233-.131-.437-.2-.19-.087-.277-.1-.554-.175-.292-.073-.583-.117-.306-.044-.306-.029-.306-.015-.627-.015h-.408l-.394.015Z" transform="translate(39.38 0)" fill="#fff"/>
    <path id="Tracé_32" data-name="Tracé 32" d="M101.612.058l.087.029.087.044.073.044.087.058.19.19.044.087.058.088.044.1.029.1.058.233.058.263.015.292V26.41l-.015.1v.1l-.058.19-.015.073-.044.087-.029.073-.087.131-.1.117-.073.044-.058.044-.073.044-.146.058-.087.029-.175.029-.1.015h-.16l-.19-.029-.058-.015-.058-.029-.058-.015-.044-.029-.044-.015-.044-.044-.044-.029-.087-.073-.029-.044-.1-.175-.015-.058-.029-.073-.015-.058-.029-.073v-.306l-.015-.058v-.058l-.015-.058v-.117l-.015-.073v-.131l-.015-.131v-.087l-.015-.058v-.248l-.015-.087v-.19l-.19.131-.19.117-.19.131-.35.2-.16.117-.175.1-.306.175-.146.087-.131.087-.146.073-.365.2-.2.117-.2.087-.175.073-.073.029-.131.058-.131.044-.131.029-.277.087-.583.117-.306.044-.321.044-.16.029L94.9,27.4h-.175l-.175.015h-.16l-.175.015h-.671l-.306-.015-.292-.015-.292-.029-.277-.015-.292-.044-.262-.029-.54-.1-.5-.117-.262-.073-.467-.146-.467-.175-.219-.1-.219-.087-.612-.35-.19-.117-.2-.146-.408-.321-.175-.16-.175-.19-.16-.175-.16-.19-.146-.2-.131-.2L86.547,24l-.1-.219-.1-.233-.087-.233-.073-.233-.073-.263-.058-.263-.044-.248-.029-.277-.044-.277-.015-.277v-7.6l.015-.277.044-.263.029-.262.044-.263.117-.5.073-.233.087-.233.088-.219.117-.219.1-.219.262-.408.292-.379.146-.175.35-.35.379-.321.2-.146.569-.35.219-.1.408-.2.452-.175.219-.073.481-.146.481-.117,1.05-.175.54-.044.554-.029H93.9l.365.029h.365l.175.029.175.015.321.029.321.058.16.015.306.058.146.029.131.029.408.117.131.044.131.058.117.044.131.044.117.058.131.044.131.058.146.073.248.131.423.233.131.073.423.277.292.2.131.1.583.467V1.735l.015-.146V1.3l.058-.263.015-.117L100.168.8,100.2.7l.044-.1.044-.087.058-.088L100.4.365l.058-.073.058-.058.073-.058.146-.088.087-.029.19-.044L101.1,0h.2l.1.015.2.044ZM93.3,10.544l-.379.044-.379.029-.365.073-.35.073-.335.073-.613.233L90.6,11.2l-.262.146-.292.219-.292.233-.248.248-.219.248-.2.277-.16.292-.146.292-.117.335-.073.335-.058.335-.015.379v6.592l.015.379.044.365.073.335.1.335.131.306.175.292.19.277.233.248.248.233.292.2.321.2.277.131.612.233.321.1.321.087.35.087.365.058.379.058.394.044.817.029.685-.015.642-.058.627-.087.306-.058.292-.087.554-.175.248-.1.2-.146.233-.16.219-.16.233-.175.248-.175.233-.19.263-.19.248-.219.262-.219.525-.467v-9.61l-.306-.233-.306-.2-.292-.2L99,12.017l-.277-.175-.262-.16-.248-.16-.233-.131-.437-.2-.19-.087-.277-.1-.554-.175-.292-.073-.583-.117-.306-.044-.306-.029-.306-.015-.627-.015h-.408l-.394.015Z" transform="translate(39.38 0)" fill="rgba(0,0,0,0)" stroke="rgba(0,0,0,0)" stroke-width="1"/>
    <path id="Tracé_33" data-name="Tracé 33" d="M200.069,16.967c-1.444-.365,4.462-7.335-6.023-15.677,0,0,1.371,4.375-5.556,14.131s3.077,15.546,3.077,15.546-4.7-2.508.773-11.433a51.569,51.569,0,0,0,3.85-6.388s1.4,2,.671,6.3c-1.094,6.519,4.769,4.652,4.856,4.74,2.056,2.406-1.692,6.65-1.925,6.781s10.7-6.563,2.931-16.654C202.2,14.838,201.513,17.346,200.069,16.967Z" transform="translate(85.269 0.591)" fill="#fff"/>
    <path id="Tracé_34" data-name="Tracé 34" d="M200.069,16.967c-1.444-.365,4.462-7.335-6.023-15.677,0,0,1.371,4.375-5.556,14.131s3.077,15.546,3.077,15.546-4.7-2.508.773-11.433a51.569,51.569,0,0,0,3.85-6.388s1.4,2,.671,6.3c-1.094,6.519,4.769,4.652,4.856,4.74,2.056,2.406-1.692,6.65-1.925,6.781s10.7-6.563,2.931-16.654C202.2,14.838,201.513,17.346,200.069,16.967Z" transform="translate(85.269 0.591)" fill="rgba(0,0,0,0)" stroke="rgba(0,0,0,0)" stroke-width="1"/>
    <path id="Tracé_35" data-name="Tracé 35" d="M138.051,5.375l.277.015.263.029.262.015.262.029.5.058.233.029.233.058.219.029.2.058.219.044.408.117.379.117.525.219.175.088.16.073.146.087.16.087.175.117.146.131.16.131.292.292.262.321.233.35.1.175.2.379.175.423.073.2.058.219.073.233.058.219.044.248.029.233.058.525.015.263.029.262v9.129l.029.408.015.1.029.175.029.087.015.087.044.16.029.073.087.2.044.058.029.058.044.058.087.1.117.117.029.015V22.1h.044l.015.029.073.029.029.015.073.029.044.029.058.015.16.058.175.073.146.058.058.015.073.029.073.044.131.044.1.044.029.029.044.029.073.058.029.029.029.044.029.029.058.087.044.087.015.058.015.044.029.117v.058l.015.058.015.073v.073l.015.073v.306l-.029.073V24l-.015.073-.015.058-.029.058-.015.058-.029.044-.044.058-.073.087-.029.044-.058.029-.16.087-.117.058-.146.029-.146.015h-.292l-.044-.015h-.058l-.146-.029-.044-.029h-.044l-.087-.029-.16-.044-.175-.044-.073-.015-.058-.015-.073-.029-.306-.1-.1-.029-.1-.044-.35-.117-.146-.058-.073-.015-.058-.029-.073-.015-.058-.015L143.695,24l-.044-.015-.1-.029-.1-.044L143.4,23.9l-.015-.015-.029-.015h-.1l-.044-.029-.044-.015-.058-.015-.029-.029-.087-.058-.044-.044-.029-.044-.044-.044-.029-.044-.029-.058-.044-.058-.029-.058-.015-.058-.044-.058-.029-.073-.044-.131-.087-.306-.029-.087-.335.233-.321.219-.146.1-.292.175-.146.1-.5.321-.117.058-.1.073-.306.175-.087.058-.233.117-.073.029-.131.058-.058.015-.087.058-.1.029-.219.073-.583.146-.117.015-.263.044-.131.015-.131.029-.408.044-.292.029h-.146l-.16.015h-1.094l-.233-.015-.452-.029L134.8,24.8l-.219-.029-.219-.044-.408-.073-.394-.087-.2-.058-.19-.058-.175-.058-.19-.073-.35-.131-.175-.087-.16-.073-.16-.087-.16-.1-.16-.087-.146-.1-.35-.233-.321-.277-.146-.146-.131-.146-.146-.146-.35-.481-.2-.35-.087-.175-.087-.19-.073-.175-.073-.19-.117-.394-.087-.408-.058-.437-.029-.437V19l.015-.219.015-.233.029-.2.073-.437.1-.408.073-.2.16-.379.175-.379.219-.35.233-.321.131-.16.146-.16.292-.292.16-.131.335-.262.19-.117.481-.35.35-.19.379-.19.19-.073.379-.16.2-.073.612-.175.219-.044.2-.058.219-.029.219-.044.233-.029.219-.015.233-.029.7-.044h.438l.19.015h.2l.423.029.2.029.219.029.2.029.233.029.2.029.219.058.233.029.219.044.467.117.715.175.233.073.744.219.525.175.248.088V11.3l-.015-.16-.015-.146-.015-.175-.029-.131-.029-.16-.058-.146-.044-.146-.044-.131-.073-.131-.058-.131L141.8,9.6l-.087-.131-.087-.1-.1-.117-.219-.2-.117-.1-.263-.175-.146-.087-.292-.146-.16-.087-.1-.044-.233-.087-.5-.16-.379-.087-.146-.029-.131-.015L138.693,8l-.131-.015-.438-.044-.146-.029h-.146l-.16-.015-.146-.015h-.992l-.365.015-.35.015-.335.029-.612.088-.292.044-.277.058-.248.073-.248.088-.233.073-.219.1-.2.1-.19.1-.175.131-.175.117-.146.146-.131.146-.131.16-.117.16-.088.16-.087.19-.073.19-.058.2-.044.2-.015.1-.029.087-.058.321-.029.131-.015.073-.015.058-.015.044v.058l-.029.088-.015.087-.015.058v.029l-.015.029v.073l-.029.044-.044.1-.015.029-.073.087-.015.029-.044.029-.073.073-.029.015-.029.029-.044.015-.044.029-.131.044-.058.015-.087.029h-.117l-.044.015h-.219l-.087-.015-.19-.029-.087-.015-.219-.088-.146-.087-.058-.058-.058-.044-.117-.117-.044-.073-.073-.131-.044-.087-.015-.088L129.2,11.3l-.015-.087v-.1l-.015-.117v-.248l.015-.146V10.45l.029-.146.015-.146.058-.292.073-.292.044-.146.044-.131.117-.292.073-.146.131-.277.262-.408.087-.131.1-.131.321-.394.117-.131.146-.16.321-.292L131.3,6.8l.379-.262.2-.117.219-.117.233-.117.219-.088L132.8,6l.262-.088.263-.073.554-.146.292-.058.612-.117.642-.073.671-.058.35-.015h.365l.365-.015h.292l.292.015h.292Zm-3.515,10.66-.992.35-.787.51-.554.642-.335.788-.1.933.029.5.087.452.16.438.219.394.292.365.365.292.423.248.365.19.408.175.438.131.467.117.5.073.525.044.554.015.5-.015.467-.029.467-.058.452-.1.438-.1.438-.16.423-.19.292-.175.321-.219.365-.233.379-.263.408-.306.438-.321.452-.335V16.662l-.788-.233-.773-.2-.773-.16-.758-.131-.744-.1-.715-.058-.7-.015-1.429.073-1.21.2Z" transform="translate(59.203 2.457)" fill="#fff"/>
    <path id="Tracé_36" data-name="Tracé 36" d="M138.051,5.375l.277.015.263.029.262.015.262.029.5.058.233.029.233.058.219.029.2.058.219.044.408.117.379.117.525.219.175.088.16.073.146.087.16.087.175.117.146.131.16.131.292.292.262.321.233.35.1.175.2.379.175.423.073.2.058.219.073.233.058.219.044.248.029.233.058.525.015.263.029.262v9.129l.029.408.015.1.029.175.029.087.015.087.044.16.029.073.087.2.044.058.029.058.044.058.087.1.117.117.029.015V22.1h.044l.015.029.073.029.029.015.073.029.044.029.058.015.16.058.175.073.146.058.058.015.073.029.073.044.131.044.1.044.029.029.044.029.073.058.029.029.029.044.029.029.058.087.044.087.015.058.015.044.029.117v.058l.015.058.015.073v.073l.015.073v.306l-.029.073V24l-.015.073-.015.058-.029.058-.015.058-.029.044-.044.058-.073.087-.029.044-.058.029-.16.087-.117.058-.146.029-.146.015h-.292l-.044-.015h-.058l-.146-.029-.044-.029h-.044l-.087-.029-.16-.044-.175-.044-.073-.015-.058-.015-.073-.029-.306-.1-.1-.029-.1-.044-.35-.117-.146-.058-.073-.015-.058-.029-.073-.015-.058-.015L143.695,24l-.044-.015-.1-.029-.1-.044L143.4,23.9l-.015-.015-.029-.015h-.1l-.044-.029-.044-.015-.058-.015-.029-.029-.087-.058-.044-.044-.029-.044-.044-.044-.029-.044-.029-.058-.044-.058-.029-.058-.015-.058-.044-.058-.029-.073-.044-.131-.087-.306-.029-.087-.335.233-.321.219-.146.1-.292.175-.146.1-.5.321-.117.058-.1.073-.306.175-.087.058-.233.117-.073.029-.131.058-.058.015-.087.058-.1.029-.219.073-.583.146-.117.015-.263.044-.131.015-.131.029-.408.044-.292.029h-.146l-.16.015h-1.094l-.233-.015-.452-.029L134.8,24.8l-.219-.029-.219-.044-.408-.073-.394-.087-.2-.058-.19-.058-.175-.058-.19-.073-.35-.131-.175-.087-.16-.073-.16-.087-.16-.1-.16-.087-.146-.1-.35-.233-.321-.277-.146-.146-.131-.146-.146-.146-.35-.481-.2-.35-.087-.175-.087-.19-.073-.175-.073-.19-.117-.394-.087-.408-.058-.437-.029-.437V19l.015-.219.015-.233.029-.2.073-.437.1-.408.073-.2.16-.379.175-.379.219-.35.233-.321.131-.16.146-.16.292-.292.16-.131.335-.262.19-.117.481-.35.35-.19.379-.19.19-.073.379-.16.2-.073.612-.175.219-.044.2-.058.219-.029.219-.044.233-.029.219-.015.233-.029.7-.044h.438l.19.015h.2l.423.029.2.029.219.029.2.029.233.029.2.029.219.058.233.029.219.044.467.117.715.175.233.073.744.219.525.175.248.088V11.3l-.015-.16-.015-.146-.015-.175-.029-.131-.029-.16-.058-.146-.044-.146-.044-.131-.073-.131-.058-.131L141.8,9.6l-.087-.131-.087-.1-.1-.117-.219-.2-.117-.1-.263-.175-.146-.087-.292-.146-.16-.087-.1-.044-.233-.087-.5-.16-.379-.087-.146-.029-.131-.015L138.693,8l-.131-.015-.438-.044-.146-.029h-.146l-.16-.015-.146-.015h-.992l-.365.015-.35.015-.335.029-.612.088-.292.044-.277.058-.248.073-.248.088-.233.073-.219.1-.2.1-.19.1-.175.131-.175.117-.146.146-.131.146-.131.16-.117.16-.088.16-.087.19-.073.19-.058.2-.044.2-.015.1-.029.087-.058.321-.029.131-.015.073-.015.058-.015.044v.058l-.029.088-.015.087-.015.058v.029l-.015.029v.073l-.029.044-.044.1-.015.029-.073.087-.015.029-.044.029-.073.073-.029.015-.029.029-.044.015-.044.029-.131.044-.058.015-.087.029h-.117l-.044.015h-.219l-.087-.015-.19-.029-.087-.015-.219-.088-.146-.087-.058-.058-.058-.044-.117-.117-.044-.073-.073-.131-.044-.087-.015-.088L129.2,11.3l-.015-.087v-.1l-.015-.117v-.248l.015-.146V10.45l.029-.146.015-.146.058-.292.073-.292.044-.146.044-.131.117-.292.073-.146.131-.277.262-.408.087-.131.1-.131.321-.394.117-.131.146-.16.321-.292L131.3,6.8l.379-.262.2-.117.219-.117.233-.117.219-.088L132.8,6l.262-.088.263-.073.554-.146.292-.058.612-.117.642-.073.671-.058.35-.015h.365l.365-.015h.292l.292.015h.292Zm-3.515,10.66-.992.35-.787.51-.554.642-.335.788-.1.933.029.5.087.452.16.438.219.394.292.365.365.292.423.248.365.19.408.175.438.131.467.117.5.073.525.044.554.015.5-.015.467-.029.467-.058.452-.1.438-.1.438-.16.423-.19.292-.175.321-.219.365-.233.379-.263.408-.306.438-.321.452-.335V16.662l-.788-.233-.773-.2-.773-.16-.758-.131-.744-.1-.715-.058-.7-.015-1.429.073-1.21.2Z" transform="translate(59.203 2.457)" fill="rgba(0,0,0,0)" stroke="rgba(0,0,0,0)" stroke-width="1"/>
    <path id="Tracé_37" data-name="Tracé 37" d="M1.415,8.458H4.1V6.11C4.1,2.027,6.2,0,10.281,0a8.825,8.825,0,0,1,4.171.919A4.282,4.282,0,0,1,16.64,4.681c0,1.065-.423,1.488-1.167,1.488a1.432,1.432,0,0,1-1.254-.919A8.424,8.424,0,0,0,13.4,3.325a3.815,3.815,0,0,0-2.931-.919c-2.508,0-3.748,1.24-3.748,3.763v2.26H11.55c1.079,0,1.575.423,1.575,1.152,0,.831-.5,1.167-1.575,1.167H6.723V26.031c0,.9-.423,1.4-1.167,1.4-.831,0-1.167-.5-1.167-1.4V10.777H1.415C.5,10.777,0,10.369,0,9.625c0-.846.5-1.167,1.415-1.167Z" transform="translate(0 0)" fill="#fff"/>
    <path id="Tracé_38" data-name="Tracé 38" d="M1.415,8.458H4.1V6.11C4.1,2.027,6.2,0,10.281,0a8.825,8.825,0,0,1,4.171.919A4.282,4.282,0,0,1,16.64,4.681c0,1.065-.423,1.488-1.167,1.488a1.432,1.432,0,0,1-1.254-.919A8.424,8.424,0,0,0,13.4,3.325a3.815,3.815,0,0,0-2.931-.919c-2.508,0-3.748,1.24-3.748,3.763v2.26H11.55c1.079,0,1.575.423,1.575,1.152,0,.831-.5,1.167-1.575,1.167H6.723V26.031c0,.9-.423,1.4-1.167,1.4-.831,0-1.167-.5-1.167-1.4V10.777H1.415C.5,10.777,0,10.369,0,9.625c0-.846.5-1.167,1.415-1.167Z" transform="translate(0 0)" fill="rgba(0,0,0,0)" stroke="rgba(0,0,0,0)" stroke-width="1"/>
    <path id="Tracé_39" data-name="Tracé 39" d="M82.063,5.582l.89.117.817.175.758.219.7.262.627.321.554.365.5.423.423.467.365.51L88,9.009l.233.613.16.656.1.715.029.744v6.869l-.029.758-.1.7-.16.671-.219.612-.292.554-.35.51-.423.467-.481.423-.554.365-.613.321-.685.277-.744.219-.8.16-.875.131-.933.073-.992.029-1.05-.015-.992-.058-.919-.117-.846-.16-.773-.219-.7-.262-.627-.321-.569-.365-.5-.423-.437-.467-.365-.525-.306-.554-.219-.627-.16-.671-.1-.715L71.68,18.6V11.736l.029-.744.1-.715.16-.656.233-.613L72.5,8.44l.379-.51.423-.467.5-.423.569-.365.627-.321.685-.262.758-.219.817-.175.89-.117.948-.087,1.021-.015,1.006.015.948.087ZM78.17,7.93l-.773.146-.685.19-.613.248-.54.306-.452.35-.365.408-.292.467-.2.51-.131.569-.029.613v6.869l.029.612.131.569.2.525.306.452.379.408.452.35.54.292.627.248.715.175.8.131.875.058h1.9l.86-.058.787-.117.7-.175L84,21.843l.54-.292.452-.335.379-.408.292-.467.2-.525L86,19.232l.044-.627V11.736L86,11.124l-.131-.569-.2-.51-.292-.467L84.98,9.17l-.452-.35-.554-.306-.642-.248-.715-.19-.8-.146-.9-.073-.977-.029-.919.029-.846.073Z" transform="translate(32.853 2.512)" fill="#fff"/>
    <path id="Tracé_40" data-name="Tracé 40" d="M82.063,5.582l.89.117.817.175.758.219.7.262.627.321.554.365.5.423.423.467.365.51L88,9.009l.233.613.16.656.1.715.029.744v6.869l-.029.758-.1.7-.16.671-.219.612-.292.554-.35.51-.423.467-.481.423-.554.365-.613.321-.685.277-.744.219-.8.16-.875.131-.933.073-.992.029-1.05-.015-.992-.058-.919-.117-.846-.16-.773-.219-.7-.262-.627-.321-.569-.365-.5-.423-.437-.467-.365-.525-.306-.554-.219-.627-.16-.671-.1-.715L71.68,18.6V11.736l.029-.744.1-.715.16-.656.233-.613L72.5,8.44l.379-.51.423-.467.5-.423.569-.365.627-.321.685-.262.758-.219.817-.175.89-.117.948-.087,1.021-.015,1.006.015.948.087ZM78.17,7.93l-.773.146-.685.19-.613.248-.54.306-.452.35-.365.408-.292.467-.2.51-.131.569-.029.613v6.869l.029.612.131.569.2.525.306.452.379.408.452.35.54.292.627.248.715.175.8.131.875.058h1.9l.86-.058.787-.117.7-.175L84,21.843l.54-.292.452-.335.379-.408.292-.467.2-.525L86,19.232l.044-.627V11.736L86,11.124l-.131-.569-.2-.51-.292-.467L84.98,9.17l-.452-.35-.554-.306-.642-.248-.715-.19-.8-.146-.9-.073-.977-.029-.919.029-.846.073Z" transform="translate(32.853 2.512)" fill="rgba(0,0,0,0)" stroke="rgba(0,0,0,0)" stroke-width="1"/>
    <path id="Tracé_41" data-name="Tracé 41" d="M184.828.263a.962.962,0,0,1,.335.656c0,.423-.5.992-1.415,1.925a18.1,18.1,0,0,0-5.731,13.65A19.314,19.314,0,0,0,184,31.092c.817.729,1.167,1.313,1.167,1.808a1.483,1.483,0,0,1-.335.744,1.188,1.188,0,0,1-.744.35c-.919,0-2.187-1.079-3.85-3.179-3.237-3.967-4.7-8.342-4.783-14.321s1.794-10.033,5.469-14.219C182.232.787,183.34,0,184.084,0a1.284,1.284,0,0,1,.744.263Z" transform="translate(80.414)" fill="#fff"/>
    <path id="Tracé_42" data-name="Tracé 42" d="M184.828.263a.962.962,0,0,1,.335.656c0,.423-.5.992-1.415,1.925a18.1,18.1,0,0,0-5.731,13.65A19.314,19.314,0,0,0,184,31.092c.817.729,1.167,1.313,1.167,1.808a1.483,1.483,0,0,1-.335.744,1.188,1.188,0,0,1-.744.35c-.919,0-2.187-1.079-3.85-3.179-3.237-3.967-4.7-8.342-4.783-14.321s1.794-10.033,5.469-14.219C182.232.787,183.34,0,184.084,0a1.284,1.284,0,0,1,.744.263Z" transform="translate(80.414)" fill="rgba(0,0,0,0)" stroke="rgba(0,0,0,0)" stroke-width="1"/>
    <path id="Tracé_43" data-name="Tracé 43" d="M152.473,7.6a4.815,4.815,0,0,1,4.156-2.071c2.858,0,4.346,1.4,4.346,4.156V23.238c0,1.152-.408,1.662-1.24,1.662s-1.167-.51-1.167-1.662V10.55c0-1.735-.744-2.669-2.173-2.669A3.961,3.961,0,0,0,153.3,9.807V23.355c0,1.152-.423,1.648-1.167,1.648s-1.167-.5-1.167-1.648V10.828c0-1.94-.817-2.844-2.348-2.844-.992,0-1.925.671-2.917,1.94V23.369c0,1.167-.423,1.662-1.254,1.662s-1.152-.5-1.152-1.662V6.773c0-.831.321-1.167.992-1.167.335,0,.656.248.831.744a2.088,2.088,0,0,1,.248,1.137,19.9,19.9,0,0,1,1.488-1.5,3.783,3.783,0,0,1,2.1-.5A4.236,4.236,0,0,1,152.473,7.6Z" transform="translate(65.679 2.516)" fill="#fff"/>
    <path id="Tracé_44" data-name="Tracé 44" d="M152.473,7.6a4.815,4.815,0,0,1,4.156-2.071c2.858,0,4.346,1.4,4.346,4.156V23.238c0,1.152-.408,1.662-1.24,1.662s-1.167-.51-1.167-1.662V10.55c0-1.735-.744-2.669-2.173-2.669A3.961,3.961,0,0,0,153.3,9.807V23.355c0,1.152-.423,1.648-1.167,1.648s-1.167-.5-1.167-1.648V10.828c0-1.94-.817-2.844-2.348-2.844-.992,0-1.925.671-2.917,1.94V23.369c0,1.167-.423,1.662-1.254,1.662s-1.152-.5-1.152-1.662V6.773c0-.831.321-1.167.992-1.167.335,0,.656.248.831.744a2.088,2.088,0,0,1,.248,1.137,19.9,19.9,0,0,1,1.488-1.5,3.783,3.783,0,0,1,2.1-.5A4.236,4.236,0,0,1,152.473,7.6Z" transform="translate(65.679 2.516)" fill="rgba(0,0,0,0)" stroke="rgba(0,0,0,0)" stroke-width="1"/>
    <path id="Tracé_45" data-name="Tracé 45" d="M52.92,5.578l.642.073.6.117.583.131.54.175.51.2.481.233.452.262.408.306.394.321.35.35.321.394.292.408.262.452.233.481.19.51.16.54.146.569.1.6.088.642.044.656.015.685v.175l-.015.16-.015.146-.044.292-.029.131-.044.131-.029.117-.117.219-.044.087-.146.175-.073.073-.088.073-.073.044-.1.058-.1.044-.2.058-.117.015-.131.015H45.4v-.1h-.029V18.28l.015.35.029.35.058.335.088.321.088.292.131.292.146.248.175.263.2.219.219.233.233.19.262.19.292.16.321.16.321.131.365.131.379.087.408.1.423.073.452.044.481.044.5.029.525.015h.19l.19-.015h.175l.19-.015H52.4l.35-.029.335-.029.16-.015.175-.029.452-.058.146-.029.131-.029.146-.029.131-.029.146-.044.131-.029.233-.087.131-.044.058-.015.073-.029.088-.029.073-.029.073-.044.088-.029.088-.044.1-.044.2-.1.2-.117.117-.073.117-.058.117-.073.262-.146.117-.087.277-.19.146-.087.16-.1.146-.1.19-.175.19-.146.073-.073.088-.058.073-.058.088-.073.131-.1.131-.088.073-.044.058-.029.058-.044.1-.044.131-.044.073-.015h.131l.146.015.219.044.058.029.1.058.058.044.131.131.044.058.058.117.029.146.029.087v.073l.015.073v.1l.015.1-.015.088v.1l-.015.087-.015.1-.1.292-.044.087-.088.2-.131.2-.073.087-.16.2-.175.19-.2.2-.233.2-.117.087-.117.117-.219.146-.219.16-.467.292-.248.131-.262.131-.263.117-.277.1-.292.117-.292.1-.306.087-.321.087-.642.146-.685.131-.729.087-.758.058-.8.029H50.675l-.685-.044-.642-.058-.627-.1-.583-.1-.554-.131-.525-.16-.5-.19-.467-.219-.423-.233-.394-.263-.379-.292-.335-.306-.306-.335-.277-.365-.233-.379-.2-.423-.175-.423-.146-.467-.117-.5-.088-.51-.044-.54-.015-.569V11.426l.015-.2.015-.175.088-.569.044-.19.044-.175.073-.175.117-.35.088-.175.16-.335.1-.16.1-.175.1-.146.117-.16.131-.146.131-.16.263-.292.146-.146.2-.19.423-.35.467-.321.248-.146.525-.262.554-.233.292-.1.612-.175.642-.146L49,5.71l.335-.044.35-.058.35-.029.379-.029.758-.029h.379l.7.015.671.044ZM49.945,7.912l-.583.1-.583.146-.554.19-.525.219-.51.262-.5.365-.408.379-.335.408-.248.438-.19.452-.117.467-.029.51v1.4H57.3l-.117-1.429L56.8,10.61,56.187,9.6l-.875-.773-1.123-.554-1.371-.335-1.619-.1-.642.015-.612.058Z" transform="translate(19.69 2.53)" fill="#fff"/>
    <path id="Tracé_46" data-name="Tracé 46" d="M52.92,5.578l.642.073.6.117.583.131.54.175.51.2.481.233.452.262.408.306.394.321.35.35.321.394.292.408.262.452.233.481.19.51.16.54.146.569.1.6.088.642.044.656.015.685v.175l-.015.16-.015.146-.044.292-.029.131-.044.131-.029.117-.117.219-.044.087-.146.175-.073.073-.088.073-.073.044-.1.058-.1.044-.2.058-.117.015-.131.015H45.4v-.1h-.029V18.28l.015.35.029.35.058.335.088.321.088.292.131.292.146.248.175.263.2.219.219.233.233.19.262.19.292.16.321.16.321.131.365.131.379.087.408.1.423.073.452.044.481.044.5.029.525.015h.19l.19-.015h.175l.19-.015H52.4l.35-.029.335-.029.16-.015.175-.029.452-.058.146-.029.131-.029.146-.029.131-.029.146-.044.131-.029.233-.087.131-.044.058-.015.073-.029.088-.029.073-.029.073-.044.088-.029.088-.044.1-.044.2-.1.2-.117.117-.073.117-.058.117-.073.262-.146.117-.087.277-.19.146-.087.16-.1.146-.1.19-.175.19-.146.073-.073.088-.058.073-.058.088-.073.131-.1.131-.088.073-.044.058-.029.058-.044.1-.044.131-.044.073-.015h.131l.146.015.219.044.058.029.1.058.058.044.131.131.044.058.058.117.029.146.029.087v.073l.015.073v.1l.015.1-.015.088v.1l-.015.087-.015.1-.1.292-.044.087-.088.2-.131.2-.073.087-.16.2-.175.19-.2.2-.233.2-.117.087-.117.117-.219.146-.219.16-.467.292-.248.131-.262.131-.263.117-.277.1-.292.117-.292.1-.306.087-.321.087-.642.146-.685.131-.729.087-.758.058-.8.029H50.675l-.685-.044-.642-.058-.627-.1-.583-.1-.554-.131-.525-.16-.5-.19-.467-.219-.423-.233-.394-.263-.379-.292-.335-.306-.306-.335-.277-.365-.233-.379-.2-.423-.175-.423-.146-.467-.117-.5-.088-.51-.044-.54-.015-.569V11.426l.015-.2.015-.175.088-.569.044-.19.044-.175.073-.175.117-.35.088-.175.16-.335.1-.16.1-.175.1-.146.117-.16.131-.146.131-.16.263-.292.146-.146.2-.19.423-.35.467-.321.248-.146.525-.262.554-.233.292-.1.612-.175.642-.146L49,5.71l.335-.044.35-.058.35-.029.379-.029.758-.029h.379l.7.015.671.044ZM49.945,7.912l-.583.1-.583.146-.554.19-.525.219-.51.262-.5.365-.408.379-.335.408-.248.438-.19.452-.117.467-.029.51v1.4H57.3l-.117-1.429L56.8,10.61,56.187,9.6l-.875-.773-1.123-.554-1.371-.335-1.619-.1-.642.015-.612.058Z" transform="translate(19.69 2.53)" fill="rgba(0,0,0,0)" stroke="rgba(0,0,0,0)" stroke-width="1"/>
    <path id="Tracé_47" data-name="Tracé 47" d="M71.855,2.228A6.2,6.2,0,0,1,74.378,7.4c0,.992-.423,1.488-1.254,1.488-.583,0-.992-.5-1.24-1.488a9.175,9.175,0,0,0-.9-2.362c-.758-1.313-2.348-1.925-4.842-1.925-2.188,0-3.675.5-4.579,1.575a7.2,7.2,0,0,0-1.342,4.754v8.677a6.985,6.985,0,0,0,1.415,4.827A6.038,6.038,0,0,0,66.313,24.6c3.252,0,5.162-1.152,5.571-3.413.16-.831.248-1.254.248-1.327a.969.969,0,0,1,.992-.744c.831,0,1.254.5,1.254,1.488a5.67,5.67,0,0,1-2.61,4.929,9.862,9.862,0,0,1-5.5,1.4A9.645,9.645,0,0,1,60,25.109c-1.765-1.167-2.508-3.15-2.508-5.746V8.921C57.49,3.423,60.3.74,66.167.74a10.021,10.021,0,0,1,5.688,1.488Z" transform="translate(26.35 0.339)" fill="#fff"/>
    <path id="Tracé_48" data-name="Tracé 48" d="M71.855,2.228A6.2,6.2,0,0,1,74.378,7.4c0,.992-.423,1.488-1.254,1.488-.583,0-.992-.5-1.24-1.488a9.175,9.175,0,0,0-.9-2.362c-.758-1.313-2.348-1.925-4.842-1.925-2.188,0-3.675.5-4.579,1.575a7.2,7.2,0,0,0-1.342,4.754v8.677a6.985,6.985,0,0,0,1.415,4.827A6.038,6.038,0,0,0,66.313,24.6c3.252,0,5.162-1.152,5.571-3.413.16-.831.248-1.254.248-1.327a.969.969,0,0,1,.992-.744c.831,0,1.254.5,1.254,1.488a5.67,5.67,0,0,1-2.61,4.929,9.862,9.862,0,0,1-5.5,1.4A9.645,9.645,0,0,1,60,25.109c-1.765-1.167-2.508-3.15-2.508-5.746V8.921C57.49,3.423,60.3.74,66.167.74a10.021,10.021,0,0,1,5.688,1.488Z" transform="translate(26.35 0.339)" fill="rgba(0,0,0,0)" stroke="rgba(0,0,0,0)" stroke-width="1"/>
    <path id="Tracé_49" data-name="Tracé 49" d="M159.143,5.435l.175.058.044.029.044.015.044.044.087.058.044.044.044.029.146.2.088.117.029.073.029.058.015.058.029.131.015.058L160,6.47l.015.073.015.058.029.058.015.073.073.175.029.073.044.117.015.073.044.175.029.058.029.117.365-.175.715-.335.35-.16L162.1,6.7l.671-.262.321-.117.306-.117.306-.1L164,6.018l.292-.1.292-.073.554-.131.277-.058.5-.088.248-.029.467-.029h.233l.671.015.642.044.627.058.569.087.554.131.525.146.481.175.452.2.423.219.394.248.365.292.321.292.306.335.262.35.233.379.2.408.175.438.131.452.117.481.087.51.044.525.015.554v6.942l-.015.277-.015.263-.015.248-.044.263-.029.248-.117.467-.073.233-.073.219-.175.437-.117.2-.1.2-.131.2-.131.19-.131.175-.146.19-.16.175-.175.175-.16.175-.379.321-.35.262-.379.233-.2.1-.19.1-.219.1-.219.087-.219.073-.467.16-.481.117-.248.058-.525.087-.525.058-.277.029-.292.015h-.919l-.35-.015-.35-.029-.335-.015-.671-.087-.321-.058-.642-.131-.306-.087-.306-.073-.306-.1-.306-.117L162.278,24l-.292-.146-.277-.146-.292-.146-.277-.16-.277-.175-.525-.379v8.006l-.029.292-.015.131-.029.131-.087.35-.044.1-.058.1-.044.073-.058.087-.117.146-.146.117-.087.029-.073.044-.087.029-.087.015-.1.015h-.292l-.1-.029-.073-.029-.087-.029-.16-.087-.058-.058-.073-.058-.117-.146-.058-.087-.044-.088-.029-.1-.044-.117-.058-.233-.029-.146-.015-.131-.015-.16V6.937l.015-.131.015-.146.015-.131.015-.117.029-.117.044-.1.029-.117.073-.175.058-.087.044-.073.058-.073.058-.044.073-.058.058-.044.073-.044.16-.044.087-.015h.131l.044.015h.044Zm6.548,2.538-.671.058-.321.044-.306.044-.306.073-.554.146-.525.2-.219.1-.233.117-.219.146-.248.16-.233.175-.248.2-.248.219L161.1,9.9l-.262.263-.292.277-.292.292v9.538h.087v-.044l.685.408.656.365.656.35.613.277.6.262.583.2.554.175.525.131.51.1.5.058.467.029.408-.015.394-.015.379-.044.35-.044.365-.058.335-.073.321-.087.306-.1.292-.117.277-.131.248-.146.306-.19.262-.219.248-.219.2-.233.175-.248.146-.277.117-.277.087-.292.073-.321.029-.321.015-.335V11.9l-.015-.408-.044-.379-.073-.335-.1-.335-.131-.306-.16-.292-.2-.263-.219-.248-.262-.219-.292-.219-.321-.175-.262-.131-.277-.131-.292-.087-.306-.1-.321-.073-.35-.073-.35-.058-.379-.044-.394-.029-.408-.015-.423-.015-.365.015h-.379Z" transform="translate(72.426 2.484)" fill="#fff"/>
    <path id="Tracé_50" data-name="Tracé 50" d="M159.143,5.435l.175.058.044.029.044.015.044.044.087.058.044.044.044.029.146.2.088.117.029.073.029.058.015.058.029.131.015.058L160,6.47l.015.073.015.058.029.058.015.073.073.175.029.073.044.117.015.073.044.175.029.058.029.117.365-.175.715-.335.35-.16L162.1,6.7l.671-.262.321-.117.306-.117.306-.1L164,6.018l.292-.1.292-.073.554-.131.277-.058.5-.088.248-.029.467-.029h.233l.671.015.642.044.627.058.569.087.554.131.525.146.481.175.452.2.423.219.394.248.365.292.321.292.306.335.262.35.233.379.2.408.175.438.131.452.117.481.087.51.044.525.015.554v6.942l-.015.277-.015.263-.015.248-.044.263-.029.248-.117.467-.073.233-.073.219-.175.437-.117.2-.1.2-.131.2-.131.19-.131.175-.146.19-.16.175-.175.175-.16.175-.379.321-.35.262-.379.233-.2.1-.19.1-.219.1-.219.087-.219.073-.467.16-.481.117-.248.058-.525.087-.525.058-.277.029-.292.015h-.919l-.35-.015-.35-.029-.335-.015-.671-.087-.321-.058-.642-.131-.306-.087-.306-.073-.306-.1-.306-.117L162.278,24l-.292-.146-.277-.146-.292-.146-.277-.16-.277-.175-.525-.379v8.006l-.029.292-.015.131-.029.131-.087.35-.044.1-.058.1-.044.073-.058.087-.117.146-.146.117-.087.029-.073.044-.087.029-.087.015-.1.015h-.292l-.1-.029-.073-.029-.087-.029-.16-.087-.058-.058-.073-.058-.117-.146-.058-.087-.044-.088-.029-.1-.044-.117-.058-.233-.029-.146-.015-.131-.015-.16V6.937l.015-.131.015-.146.015-.131.015-.117.029-.117.044-.1.029-.117.073-.175.058-.087.044-.073.058-.073.058-.044.073-.058.058-.044.073-.044.16-.044.087-.015h.131l.044.015h.044Zm6.548,2.538-.671.058-.321.044-.306.044-.306.073-.554.146-.525.2-.219.1-.233.117-.219.146-.248.16-.233.175-.248.2-.248.219L161.1,9.9l-.262.263-.292.277-.292.292v9.538h.087v-.044l.685.408.656.365.656.35.613.277.6.262.583.2.554.175.525.131.51.1.5.058.467.029.408-.015.394-.015.379-.044.35-.044.365-.058.335-.073.321-.087.306-.1.292-.117.277-.131.248-.146.306-.19.262-.219.248-.219.2-.233.175-.248.146-.277.117-.277.087-.292.073-.321.029-.321.015-.335V11.9l-.015-.408-.044-.379-.073-.335-.1-.335-.131-.306-.16-.292-.2-.263-.219-.248-.262-.219-.292-.219-.321-.175-.262-.131-.277-.131-.292-.087-.306-.1-.321-.073-.35-.073-.35-.058-.379-.044-.394-.029-.408-.015-.423-.015-.365.015h-.379Z" transform="translate(72.426 2.484)" fill="rgba(0,0,0,0)" stroke="rgba(0,0,0,0)" stroke-width="1"/>
  </g>
</svg>
