<svg xmlns="http://www.w3.org/2000/svg" width="213.43" height="213.482" viewBox="0 0 213.43 213.482"><g transform="translate(-2.586 -2.572)"><path d="M123.815,216.054a4.2,4.2,0,0,1-2.5-.833l-12.172-9.129-12.171,9.128a4.163,4.163,0,0,1-4.365.392,4.14,4.14,0,0,1-2.3-3.726V183.2a552.258,552.258,0,0,0-70.036,7.12,10.17,10.17,0,0,1-1.488.054h-.1a10.037,10.037,0,0,1-5.728-1.879,17,17,0,0,1-4.9-5.479,37.7,37.7,0,0,1-3.956-10.505,64.151,64.151,0,0,1,0-27.631A37.7,37.7,0,0,1,8.048,134.38a17,17,0,0,1,4.9-5.479,10.037,10.037,0,0,1,5.728-1.879h.505c.51,0,.667.008.74.014,23.874,1.871,46.911,2.961,70.412,3.332a11.507,11.507,0,0,1,11.476-10.681H116.48a11.5,11.5,0,0,1,11.476,10.677c23.563-.377,47.357-1.5,70.73-3.329.071-.006.227-.014.738-.014h.5a10.037,10.037,0,0,1,5.729,1.879,17,17,0,0,1,4.9,5.479,37.694,37.694,0,0,1,3.956,10.505,64.152,64.152,0,0,1,0,27.631,37.694,37.694,0,0,1-3.956,10.5,17,17,0,0,1-4.9,5.479,10.037,10.037,0,0,1-5.729,1.879h-.1a10.208,10.208,0,0,1-1.484-.054,564.75,564.75,0,0,0-70.355-7.11v28.672a4.172,4.172,0,0,1-4.169,4.168Zm-14.671-11.212,12.771,9.578a3.169,3.169,0,0,0,5.069-2.534V182.178l.518.019c11.737.422,23.69,1.241,35.529,2.436,11.714,1.182,23.647,2.765,35.467,4.7a11.179,11.179,0,0,0,1.326.041h.1c3.679,0,7.147-2.439,9.767-6.867,3.333-5.641,5.322-14.542,5.322-23.811s-1.99-18.171-5.322-23.812c-2.619-4.428-6.088-6.867-9.767-6.867h-.5c-.46,0-.609.007-.657.011-23.556,1.847-47.536,2.97-71.278,3.34l-.494.008-.014-.493a10.449,10.449,0,0,0-10.5-10.2H101.807a10.451,10.451,0,0,0-10.5,10.2l-.014.493-.493-.008c-23.689-.364-46.9-1.457-70.96-3.343-.051,0-.2-.011-.659-.011h-.505c-3.679,0-7.147,2.439-9.767,6.867-3.333,5.641-5.322,14.542-5.322,23.811s1.99,18.171,5.323,23.812c2.62,4.428,6.088,6.867,9.767,6.867h.1a11.093,11.093,0,0,0,1.33-.042,552.945,552.945,0,0,1,70.677-7.151l.518-.018v29.719a3.168,3.168,0,0,0,5.069,2.534Zm11.5.708-9.6-7.2a3.164,3.164,0,0,0-3.8,0l-9.6,7.2V174.881l.761.467a20.584,20.584,0,0,0,21.485,0l.761-.467Zm-11.5-8.837a4.138,4.138,0,0,1,2.5.835l8,6v-26.9a21.59,21.59,0,0,1-21.008,0v26.9l8-6A4.138,4.138,0,0,1,109.143,196.713Zm90.784-13.671c-1.931,0-3.238-1.939-4.311-3.756a30.671,30.671,0,0,1-3.259-8.905,58.285,58.285,0,0,1,0-23.362,30.671,30.671,0,0,1,3.259-8.905c1.074-1.817,2.38-3.756,4.311-3.756s3.238,1.939,4.311,3.756a30.671,30.671,0,0,1,3.259,8.905,58.285,58.285,0,0,1,0,23.362,30.67,30.67,0,0,1-3.259,8.905C203.165,181.1,201.858,183.042,199.927,183.042Zm0-47.684c-1.263,0-2.293,1.305-3.45,3.265-2.734,4.628-4.3,11.946-4.3,20.078s1.568,15.45,4.3,20.078c1.158,1.96,2.187,3.265,3.45,3.265s2.293-1.305,3.45-3.265c2.735-4.628,4.3-11.946,4.3-20.078s-1.568-15.45-4.3-20.078C202.22,136.663,201.19,135.358,199.927,135.358ZM18.675,183.042c-1.931,0-3.238-1.939-4.311-3.756a30.67,30.67,0,0,1-3.259-8.905,58.285,58.285,0,0,1,0-23.362,30.67,30.67,0,0,1,3.259-8.905c1.073-1.817,2.38-3.756,4.311-3.756s3.238,1.939,4.311,3.756a30.67,30.67,0,0,1,3.259,8.905A55.138,55.138,0,0,1,27.428,158.7a55.138,55.138,0,0,1-1.182,11.681,30.67,30.67,0,0,1-3.259,8.905C21.913,181.1,20.606,183.042,18.675,183.042Zm0-47.684c-1.263,0-2.293,1.305-3.45,3.265-2.734,4.628-4.3,11.946-4.3,20.078s1.568,15.45,4.3,20.078c1.158,1.96,2.187,3.265,3.45,3.265s2.293-1.305,3.45-3.265c2.735-4.628,4.3-11.946,4.3-20.078s-1.568-15.45-4.3-20.078C20.968,136.663,19.938,135.358,18.675,135.358ZM189.6,181.54l-.935-.136a567.942,567.942,0,0,0-61.2-5.549l-.482-.017v-7.771l.065-.115a20.6,20.6,0,0,0,0-20.34l-.065-.115v-9.784l.492-.008c20.543-.318,41.3-1.2,61.684-2.61l.9-.062-.424.8c-3.049,5.722-4.8,14.058-4.8,22.87,0,8.3,1.585,16.317,4.348,21.991Zm-61.616-6.666a568.912,568.912,0,0,1,59.907,5.408c-2.582-5.74-4.052-13.538-4.052-21.583,0-8.573,1.636-16.723,4.508-22.545-19.959,1.369-40.259,2.224-60.362,2.544v8.535a21.6,21.6,0,0,1,0,21.1Zm-98.976,6.663.413-.85c2.761-5.682,4.344-13.7,4.344-21.988,0-8.809-1.747-17.145-4.794-22.87l-.424-.8.9.063c20.684,1.445,40.757,2.3,61.365,2.614l.492.008v9.78l-.065.115a20.6,20.6,0,0,0,0,20.34l.065.115v7.761l-.483.017A549.361,549.361,0,0,0,29.942,181.4Zm1.253-45.382c2.869,5.825,4.5,13.975,4.5,22.545a62.637,62.637,0,0,1-1.211,12.463,43.411,43.411,0,0,1-2.837,9.115A549.861,549.861,0,0,1,90.3,174.863v-6.531a21.6,21.6,0,0,1,0-21.1V138.7C70.142,138.386,50.487,137.553,30.26,136.155Zm78.884,35.883A14.255,14.255,0,1,1,123.4,157.783,14.271,14.271,0,0,1,109.143,172.038Zm0-27.51A13.255,13.255,0,1,0,122.4,157.783,13.27,13.27,0,0,0,109.143,144.528Zm11.5-3.843-.761-.467a20.583,20.583,0,0,0-21.485,0l-.761.467V131.19a4.173,4.173,0,0,1,4.168-4.168h14.672a4.173,4.173,0,0,1,4.168,4.168Zm-11.5-4.493a21.543,21.543,0,0,1,10.5,2.728v-7.73a3.172,3.172,0,0,0-3.168-3.168H101.807a3.172,3.172,0,0,0-3.168,3.168v7.73A21.543,21.543,0,0,1,109.143,136.192Zm-55.02-17.34H39.451a4.173,4.173,0,0,1-4.168-4.168V90.841a4.173,4.173,0,0,1,4.168-4.168h3.168V49.348l-3.477-1.894a4.169,4.169,0,0,1,0-7.319L107.074,3.081a4.166,4.166,0,0,1,3.993,0L179,40.136a4.169,4.169,0,0,1,0,7.318l-21.672,11.82V94.495a11.5,11.5,0,0,1-8.766,11.174c-11.7,2.868-38.1,9.329-38.364,9.394a4.114,4.114,0,0,1-1.982,0l-38.482-9.393a11.506,11.506,0,0,1-8.774-11.178V59.353l-10-5.457V86.673h3.168a4.173,4.173,0,0,1,4.168,4.168v23.842A4.173,4.173,0,0,1,54.123,118.852ZM39.451,87.673a3.172,3.172,0,0,0-3.168,3.168v23.842a3.172,3.172,0,0,0,3.168,3.168H54.123a3.172,3.172,0,0,0,3.168-3.168V90.841a3.172,3.172,0,0,0-3.168-3.168H49.914l.038-.536c0-.033,0-.069,0-.115V52.211l12.027,6.56-.02.318c0,.043,0,.092,0,.145V94.491A10.48,10.48,0,0,0,69.97,104.7l38.485,9.394a3.1,3.1,0,0,0,1.5,0c.268-.065,26.661-6.526,38.366-9.394a10.476,10.476,0,0,0,8-10.2V59.234c0-.074,0-.15-.007-.231l-.014-.311L178.52,46.577a3.169,3.169,0,0,0,0-5.563L110.588,3.959a3.166,3.166,0,0,0-3.035,0L39.621,41.014a3.169,3.169,0,0,0,0,5.564l4,2.177V87.023c0,.045,0,.081,0,.115l.038.536Zm11.5,23.842H42.619V94.009h8.336Zm-7.336-1h6.336V95.009H43.619Zm65.583-2.76-.119-.029L71.475,98.542a4.164,4.164,0,0,1-3.18-4.051V62.217l39.257,21.41a3.166,3.166,0,0,0,3.035,0l11.463-6.25a3.169,3.169,0,0,0-3.036-5.563l-9.945,5.427L55.285,47.9l.239-.939H90.543a3.168,3.168,0,1,0,0-6.336H55.524l-.239-.939L109.07,10.349l.239.131L170.387,43.8l-40.339,22a3.167,3.167,0,1,0,3.035,5.56l16.908-9.221V94.495a4.163,4.163,0,0,1-3.176,4.051ZM69.3,63.9V94.491a3.166,3.166,0,0,0,2.418,3.08l37.489,9.156,37.376-9.152a3.165,3.165,0,0,0,2.414-3.08V63.821l-15.429,8.415a4.167,4.167,0,1,1-3.992-7.316L168.3,43.8,109.07,11.488,57.485,39.627H90.543a4.168,4.168,0,1,1,0,8.336H57.485L109.07,76.1l9.466-5.166a4.169,4.169,0,1,1,3.993,7.319l-11.463,6.25a4.166,4.166,0,0,1-3.993,0Z" transform="translate(0 0)" fill="#fcfaf9"/></g></svg>