<svg xmlns="http://www.w3.org/2000/svg" xmlns:xlink="http://www.w3.org/1999/xlink" width="240" height="234" viewBox="0 0 240 234">
  <defs>
    <filter id="FT">
      <feOffset dx="3" dy="3" input="SourceAlpha"/>
      <feGaussianBlur stdDeviation="1.5" result="blur"/>
      <feFlood flood-opacity="0.49" result="color"/>
      <feComposite operator="out" in="SourceGraphic" in2="blur"/>
      <feComposite operator="in" in="color"/>
      <feComposite operator="in" in2="SourceGraphic"/>
    </filter>
    <filter id="Rectangle_51">
      <feOffset dx="3" dy="3" input="SourceAlpha"/>
      <feGaussianBlur stdDeviation="1.5" result="blur-2"/>
      <feFlood flood-opacity="0.612" result="color-2"/>
      <feComposite operator="out" in="SourceGraphic" in2="blur-2"/>
      <feComposite operator="in" in="color-2"/>
      <feComposite operator="in" in2="SourceGraphic"/>
    </filter>
  </defs>
  <g id="favicon" transform="translate(-6262 -3728)">
    <path id="Tracé_67" data-name="Tracé 67" d="M42.5,0h155A42.464,42.464,0,0,1,240,42.5v149A42.464,42.464,0,0,1,197.5,234H42.5A42.464,42.464,0,0,1,0,191.5V42.5A42.464,42.464,0,0,1,42.5,0Z" transform="translate(6262 3728)" fill="#16161d"/>
    <g id="Groupe_22" data-name="Groupe 22" transform="translate(-41 -18)">
      <g data-type="innerShadowGroup">
        <text id="FT-2" data-name="FT" transform="translate(6329 3922)" fill="#fcfaf9" font-size="167" font-family="Roboto-Black, Roboto" font-weight="800" letter-spacing="-0.058em"><tspan x="0" y="0">FT</tspan></text>
        <g transform="matrix(1, 0, 0, 1, 6303, 3746)" filter="url(#FT)">
          <text id="FT-3" data-name="FT" transform="translate(26 176)" fill="#fff" font-size="167" font-family="Roboto-Black, Roboto" font-weight="800" letter-spacing="-0.058em"><tspan x="0" y="0">FT</tspan></text>
        </g>
      </g>
      <g data-type="innerShadowGroup">
        <rect id="Rectangle_51-2" data-name="Rectangle 51" width="28" height="25" transform="translate(6480 3922)" fill="#fff"/>
        <g transform="matrix(1, 0, 0, 1, 6303, 3746)" filter="url(#Rectangle_51)">
          <rect id="Rectangle_51-3" data-name="Rectangle 51" width="28" height="25" transform="translate(177 176)" fill="#fff"/>
        </g>
      </g>
    </g>
  </g>
</svg>
