<svg xmlns="http://www.w3.org/2000/svg" width="437.931" height="301.587" viewBox="0 0 437.931 301.587"><g transform="translate(0 -0.534)"><path d="M408.774,73.7c-.791,1.066-1.077,1.428-1.337,1.809-.271.4-.5.827-.779,1.219a18.065,18.065,0,0,1-10.382,7.414q-7.53,1.9-15.173,3.354c-4.015.759-8.105,1.106-12.141,1.767-5.708.935-11.383,2.077-17.1,2.971a48.842,48.842,0,0,1-16.185-.417c-2.7-.479-4.764-1.554-5.859-4.163-.049-.116-.339-.132-.516-.194-1.4,3.322-1.253,3.9,1.843,5.312,3.3,1.506,6.668,2.8,10.418,2.619,1.319-.063,2.653.187,3.973.15a80.575,80.575,0,0,0,9.012-.443c7.039-1,14.067-2.115,21.054-3.414,7.819-1.454,15.636-2.941,23.134-5.744,2.856-1.069,5.575-2.254,7.719-4.518a23.249,23.249,0,0,1,2.318-1.891V73.7ZM307.011,10.2c-.35.651-.669,1.141-.887,1.673a10.231,10.231,0,0,1-3.2,4.305,52.878,52.878,0,0,1-5.555,4.016,96.421,96.421,0,0,1-13.608,6.677c-8.3,3.233-16.519,6.683-24.874,9.757-4.947,1.82-9.9,3.892-15.336,3.864a2.879,2.879,0,0,0-.716.087,10.636,10.636,0,0,1-10.014-2.627,3.028,3.028,0,0,0-.952-.365c-.955.8-.752,1.751-.5,2.661a2.975,2.975,0,0,0,1.831,2.1,18.855,18.855,0,0,0,9.159,1.628c5.978-.718,11.941-1.508,17.628-3.7,5.056-1.949,10.22-3.616,15.262-5.6,7.841-3.082,15.728-6.056,23.085-10.275a27.34,27.34,0,0,0,9.164-7.96,2.85,2.85,0,0,0,.726-1.566c-.154-1.518,0-3.153-1.212-4.673ZM104.327,239.843a5.506,5.506,0,0,0-.008-1.109c-1.571-5.056-3.03-10.154-4.761-15.155-3.425-9.9-6.388-19.956-10.213-29.722a127.215,127.215,0,0,1-4.647-13.67c-1.7-6.415-4.337-12.489-6.383-18.773-1.377-4.232-2.8-8.45-4.222-12.668a16.831,16.831,0,0,0-2.407-5.2c-.754.475-1.36.854-1.965,1.24-.3.192-.6.395-.933.621a86.691,86.691,0,0,0,3.173,9.8c.965,2.336,1.817,4.718,2.694,7.09,1.711,4.628,3.381,9.272,5.11,13.894,1.309,3.5,2.813,6.923,4,10.459,2.573,7.645,4.962,15.354,7.494,23.013,3.1,9.374,6.4,18.684,8.731,28.292a13.87,13.87,0,0,0,.748,1.892h3.587ZM342.3,118.028c-4.25-1.942-8.084-3.674-11.9-5.443-3.929-1.82-7.841-3.675-11.76-5.515-3.815-1.792-7.589-3.682-11.458-5.352-3.947-1.706-7.67-3.954-12.046-5.226-1.18,2.2-2.3,4.282-3.508,6.537,1.19.694,2.183,1.374,3.257,1.882q7.347,3.472,14.735,6.858,13.968,6.375,27.962,12.689a18.91,18.91,0,0,0,1.824.622c1.709-2.143,1.759-4.643,2.9-7.05ZM200.143,61.341c2.518.883,4.616,1.732,6.779,2.353,4.275,1.229,8.59,2.314,12.879,3.495,2.661.732,5.289,1.593,7.959,2.285,6.05,1.567,12.113,3.078,18.179,4.587,1.371.341,2.768.582,4.158.869,1.33-2.3,1.529-4.737,2.149-7.04.081-.3-.114-.668-.2-1.092-4.1-1.014-8.173-2.013-12.243-3.032s-8.159-2.063-12.238-3.1c-4.2-1.068-8.365-2.271-12.6-3.18-4.075-.876-8.012-2.449-12.394-2.7-.791,2.128-1.535,4.132-2.432,6.553ZM403.661,88.466a4.8,4.8,0,0,0-.959-.045c-9.79,3.93-20.092,5.8-30.417,7.562-3.793.647-7.628,1.073-11.395,1.843A83.015,83.015,0,0,1,341.111,99.1a22.4,22.4,0,0,1-8.39-1.895c-1.613-.717-3.321-1.216-4.955-1.8-1.14,1.32-1.243,2.825-1.785,4.139-.588,1.423-1.122,2.869-1.82,4.674a17,17,0,0,0,1.8,1.288c2.223,1.2,4.4,2.589,6.939,2.96,4.642.68,9.306,1.2,13.96,1.786a2.446,2.446,0,0,0,2.194-1.03,15.335,15.335,0,0,1,5.622-3.852,56.977,56.977,0,0,1,7.792-2.816c5.443-1.481,10.945-2.741,16.416-4.114,3.736-.937,7.429-2.081,11.2-2.816a50.617,50.617,0,0,0,8.241-2.585,10.424,10.424,0,0,0,5.332-4.572ZM229.769,57.272a15.757,15.757,0,0,1,2.708.438,19.69,19.69,0,0,0,8.923.7c3.822-.394,7.631-.893,11.449-1.31a4.15,4.15,0,0,0,3-1.767,20.237,20.237,0,0,1,2.333-2.727,33.663,33.663,0,0,1,9.323-6.1c4.168-1.834,8.323-3.692,12.394-5.743,2.792-1.405,5.715-2.552,8.5-3.973,3.848-1.964,8.012-3.256,11.617-5.759a13.9,13.9,0,0,0,4.636-4.929c.209-.4.541-.817-.01-1.216a1.141,1.141,0,0,0-.35.1c-8.154,5.5-17.32,8.885-26.34,12.552-4.34,1.765-8.824,3.174-13.206,4.839a82.806,82.806,0,0,1-22.056,5.137,8.974,8.974,0,0,1-2.151-.114c-2.141-.332-4.269-.733-6.41-1.065a20.164,20.164,0,0,0-2.12-.107c-.751,3.7-1.465,7.21-2.242,11.046ZM218.637,246.985c1.685-.089,3.1-.185,4.522-.234,8.182-.275,16.363-.53,24.545-.809,4.931-.168,9.858-.384,14.789-.546a32.607,32.607,0,0,0,3.951.015c5.733-.906,11.524-.62,17.284-.911,10.94-.555,21.892-.863,32.838-1.307a8.8,8.8,0,0,0,1.928-.5,3.905,3.905,0,0,0-.5-3.865c-.9,0-1.962-.033-3.022.008-3.121.121-6.241.339-9.362.4-3.478.063-6.96-.071-10.439-.018-5.774.09-11.547.277-17.321.392-3.734.075-7.47.074-11.2.146-5.3.1-10.591.295-15.888.346-4.563.047-9.126-.1-13.688-.061-3.612.029-7.222.185-10.831.329a60.461,60.461,0,0,0-7.5.706,11.544,11.544,0,0,0-.1,5.913Zm-3.33-5.9c-1.31-.067-2.252-.2-3.188-.147-3.127.163-6.248.484-9.377.571-5.9.164-11.81.277-17.715.289-16.034.031-32.067-.008-48.1,0-2.89,0-5.783.051-8.672.133-4.693.131-9.384.355-14.079.438-2.169.038-4.316-.124-6.418.685a8.138,8.138,0,0,1-2.5.193c-1.066.044-2.135.063-3.231.095-.042.545-.205.961-.076,1.239a5.092,5.092,0,0,0,4.723,3.324c1.679.021,3.358-.075,5.037-.065,2.283.011,4.568.143,6.848.1,3.6-.072,7.188-.329,10.783-.368,6.74-.075,13.483-.046,20.225-.068q25.5-.09,51-.193,6.329-.027,12.657-.171a11.12,11.12,0,0,0,2.084-.466v-5.585ZM241.135,222.8c.143,1.032.2,1.627.317,2.21s.289,1.168.448,1.748c.288,1.044.631,2.076.863,3.131.324,1.471-.193,2.416-1.632,2.71a27.922,27.922,0,0,1-4.653.58c-4.691.15-9.383.2-14.075.285q-23.294.438-46.587.873c-7.954.139-15.91.231-23.866.323-5.3.061-10.591.07-15.886.133-7.47.092-14.94.178-22.407.345a3.572,3.572,0,0,1-3.713-2.247,17.131,17.131,0,0,1-.7-1.664q-4-12-7.975-24.008-4.308-13.036-8.586-26.082c-1.877-5.718-3.676-11.464-5.637-17.156a71.052,71.052,0,0,0-3.2-7.651,25.151,25.151,0,0,1-1.93-6.568c-.323-1.795.377-2.736,2.288-2.89,6.354-.51,12.693-1.235,19.092-1.059,4.33.117,8.672.095,13-.072,3.476-.136,6.933-.765,10.407-.851,7.712-.193,15.428-.193,23.141-.257,4.456-.038,8.913-.136,13.367-.04a11.033,11.033,0,0,0,7.218-2.8c.421-.331,1.068-.6.717-1.379a9.277,9.277,0,0,0-4.63.06,14.886,14.886,0,0,1-3.207.4q-13.371.35-26.748.638-16.449.365-32.9.694c-7.83.143-15.663.19-23.492.339a10.784,10.784,0,0,0-4.3.471,4.408,4.408,0,0,0,.013,1.123c.511,1.731,1.549,3.467,1.485,5.166-.079,2.087,1.437,3.2,1.98,4.869,2.419,7.439,5.177,14.767,7.589,22.209,1.856,5.722,3.454,11.529,5.645,17.145.656,1.684,1.329,3.363,1.9,5.076,2.091,6.277,4.038,12.607,6.238,18.845,2.36,6.693,4.562,13.424,6.4,20.277a12.222,12.222,0,0,0,.7,1.618c3.31,0,6.439.01,9.567,0,2.049-.008,4.1-.013,6.146-.082,2.874-.1,5.746-.349,8.62-.377,9.158-.092,18.317-.114,27.474-.157,6.63-.032,13.263.019,19.893-.1,11.2-.2,22.4-.492,33.6-.79,5.657-.149,11.311-.453,16.968-.58,6.135-.136,12.273-.138,18.39-.691a3.138,3.138,0,0,0,.909-.406,72.789,72.789,0,0,0-5.266-14.727l-2.989,1.364ZM113.2,232.1c22.743-.418,45.144-.829,67.545-1.253a3.562,3.562,0,0,0,.934-.281c-.006-.7-.539-.816-.922-1.062-5.163-3.321-10.368-6.58-15.487-9.971-7.637-5.055-14.967-10.519-22.1-16.274-8.38-6.758-15.842-14.435-23.277-22.162-.395-.412-.866-.749-1.347-1.162-6.629,3.289-13.068,6.668-20.246,8.308,5.053,14.575,9.633,29.16,14.9,43.857ZM229.008,30.746c-2.89-1.367-5.579-1.079-8.205-1.221a19.257,19.257,0,0,0-8.714,1.817,28.366,28.366,0,0,0-10.527,7.306,23.254,23.254,0,0,1-7.585,5.458c-4.721,2.241-9.636,3.746-14.972,3.475-3.719-.188-7.448-.067-11-1.58-1.777-.757-3.763-.675-5.683-.869a8.448,8.448,0,0,0-6.858,2.562,23.23,23.23,0,0,0-4.425,6.114,47.166,47.166,0,0,1-4.693,7.254c-3.387,4.1-7.445,7.247-13.184,7.144a5.99,5.99,0,0,0-1.075.14,10.076,10.076,0,0,1-4.275-.324c-2.208-.567-4.481-.887-6.73-1.3a6.352,6.352,0,0,0-5.4,1.506,25.565,25.565,0,0,0-3.072,3.039,5.029,5.029,0,0,0-1.029,4.747A8.016,8.016,0,0,0,113.2,79.18c2.56,3.155,5.26,5.8,9.818,5.693A87.1,87.1,0,0,1,132,85.59a7.8,7.8,0,0,0,1.392-.148c2.63-.277,5.255-.62,7.891-.812,5.044-.367,10.1-.642,15.143-.968,2.028-.13,4.053-.31,6.08-.44A95.847,95.847,0,0,0,174.39,81.25a29.132,29.132,0,0,0,7.222-2.05,16.631,16.631,0,0,0,2.24-1.316,30.833,30.833,0,0,0,3.566-3c.737-.693,1.627-1.13,2.386-1.781a12.027,12.027,0,0,0,2.319-3.433,47.7,47.7,0,0,0,2.127-4.351q.928-2.17,1.638-4.422a5.294,5.294,0,0,1,.737-1.67,11.662,11.662,0,0,0,1.133-2.263,38.752,38.752,0,0,0,1.78-4.928,1.966,1.966,0,0,1,2.508-1.495c.709.119,1.4.363,2.1.545q9.263,2.4,18.528,4.8a4.008,4.008,0,0,0,3.288-.032,27.539,27.539,0,0,0,1.6-15.131,15.142,15.142,0,0,1,.651-7.776c.218-.674.484-1.333.8-2.2ZM121.37,178.237c1.107,1.2,1.884,2.1,2.729,2.942,3,2.967,6.05,5.882,9.031,8.868a167.476,167.476,0,0,0,18.6,16.03c5.218,3.883,10.621,7.514,15.95,11.247q4.554,3.195,9.274,6.142c2.757,1.728,5.642,3.936,8.681,5.126a5.3,5.3,0,0,0,2.932.154c3.21-.435,6.449-.674,9.664-1.1q9.774-1.305,19.412-3.451,9.676-2.154,19.146-5.138c6.167-1.946,12.158-4.666,18.333-6.459a27.921,27.921,0,0,0,3.028-1.29,41.792,41.792,0,0,1,4.926-2.222c4.91-1.375,9.1-4.363,13.915-5.964a52.477,52.477,0,0,0,7.88-3.6c3.722-1.974,7.381-4.069,10.991-6.238a9.918,9.918,0,0,0,3.427-3.658c1.022-1.77,2.167-3.471,3.312-5.166,1.076-1.6,2.284-3.106,3.321-4.727,2.144-3.351,4.135-6.8,6.326-10.118,3.786-5.729,7.646-11.408,11.528-17.071,5.055-7.372,9.159-15.3,13.544-23.06a7.2,7.2,0,0,0,.47-1.644c-3.132-1.993-6.559-2.893-9.647-4.486-3.111-1.607-6.34-2.919-9.54-4.312-3.089-1.346-6.12-2.828-9.2-4.2-3.188-1.423-6.424-2.743-9.6-4.2-3.132-1.434-5.985-3.473-9.315-4.534a22.6,22.6,0,0,0-3.444,6.127,24.729,24.729,0,0,1-1.061,2.685c-3.06,5.591-6.162,11.157-9.253,16.729-.292.526-.592,1.051-.915,1.559-1.746,2.743-3.542,5.453-5.244,8.223-2.97,4.841-6.634,8.8-12.135,10.886-3.6,1.362-7.008,3.218-10.562,4.712-4.552,1.912-9.146,3.723-13.755,5.493-2.694,1.034-5.464,1.87-8.179,2.85a173.017,173.017,0,0,0-17.6,7.532,7.836,7.836,0,0,1-1,.406,1.041,1.041,0,0,1-1.322-1.2,5.232,5.232,0,0,1,.862-1.927,11.524,11.524,0,0,1,1.919-1.634,32.571,32.571,0,0,0,8.009-8.266,6.471,6.471,0,0,1,1.561-1.973c2.876-1.985,4.49-4.974,6.413-7.726,2.692-3.854,5.423-7.68,8.069-11.563a11.36,11.36,0,0,0,1.563-3.2q2.492-8.686,4.813-17.42c1.932-7.209,3.773-14.442,5.721-21.645a58.748,58.748,0,0,0,1.611-8.14,14.463,14.463,0,0,1,1.129-4.159,28.609,28.609,0,0,0,1.65-6.7c-5.639-1.79-11.282-2.955-16.9-4.258-5.507-1.279-10.968-2.78-16.417-4.294-5.557-1.545-11.076-3.225-16.73-4.88-.97,2.311-2.356,4.267-2.458,6.568a31.189,31.189,0,0,1-1.31,6.707c-.866,3.257-1.775,6.508-2.49,9.8-1.889,8.717-4.176,17.331-6.6,25.91-.62,2.2-1.582,4.317-2.091,6.54-1.269,5.54-3.4,10.8-5.069,16.2a12.474,12.474,0,0,1-3.473,5.391c-4.727,4.548-10.274,7.955-15.665,11.588-1.3.876-2.648,1.679-3.923,2.589-4.6,3.287-9.171,6.625-13.782,9.9-2.056,1.461-4.247,2.739-6.262,4.253a53.934,53.934,0,0,1-13.1,7.552c-.432.165-.823.437-1.706.912ZM83.4,196.378a117.4,117.4,0,0,0-4.614-13.3c-3.1-7.712-5.748-15.6-8.728-23.36-1.687-4.39-3.266-8.81-4.655-13.3-.246-.8-.429-1.61-.674-2.539a32.094,32.094,0,0,1,5.141-3.954,4.663,4.663,0,0,1,2.412-.448c3.617-.063,7.235,0,10.851-.089,6.024-.147,12.045-.4,18.068-.564q15.546-.417,31.1-.765c2.288-.052,4.588.13,6.869-.013,10.955-.688,21.93-.588,32.9-.812.952-.019,1.9-.118,3-.191,2.126-3.992,3.029-8.389,4.514-12.554,1.493-4.186,2.644-8.5,3.9-12.768s2.518-8.557,3.656-12.867c.569-2.147,1.111-4.3,1.6-6.465.3-1.351,1.289-3.357-.083-4.4-.9-.685-2.206-.322-3.239-.322H173.853c-15.59,0-31.162.988-46.83.7-1.447-.025-2.894-.105-4.34-.093a22.513,22.513,0,0,1-13.79-4.657,8.681,8.681,0,0,1-3.373-5.4,6.214,6.214,0,0,1,.533-4.231,24.2,24.2,0,0,1,6.465-8.154,11.259,11.259,0,0,1,6.679-2.421,29.276,29.276,0,0,1,8.576,1.1,16.438,16.438,0,0,0,9.6-.481,11.8,11.8,0,0,0,3.1-1.813A24.551,24.551,0,0,0,148.257,52a19.692,19.692,0,0,1,8.372-9.167,7.942,7.942,0,0,1,4.14-1.063,23.782,23.782,0,0,1,8.867,1.344,14.26,14.26,0,0,0,6.036.938,28.9,28.9,0,0,1,3.255.05c7.524.424,13.875-2.426,19.6-7.02a9.352,9.352,0,0,0,1.228-1.309,23.046,23.046,0,0,1,6.722-5.421,32.539,32.539,0,0,1,12.234-4.163c3.148-.3,6.239.345,9.347.7.715.082,1.413.324,2.127.387a3.438,3.438,0,0,0,2.964-.969,37.844,37.844,0,0,1,9.76-6.775c2.459-1.273,4.812-2.754,7.257-4.059a33.495,33.495,0,0,1,3.328-1.362,7.864,7.864,0,0,0,1.657-.686c3.47-2.48,7.516-3.783,11.307-5.6,1.411-.677,2.769-1.485,4.224-2.043,5.059-1.944,10.131-3.867,15.512-4.765,4.1-.683,8.147-.826,12.085.831a8.829,8.829,0,0,0,2.078.617c2.837.424,5.1,1.935,7.436,3.488a10.244,10.244,0,0,1,3.911,5.371,9.62,9.62,0,0,0,.612,1.321,6.091,6.091,0,0,1,.865,2.695,16.243,16.243,0,0,1-1.672,8.063,33.4,33.4,0,0,1-4.24,6.505,6.833,6.833,0,0,1-2.17,2.066c-3.1,1.583-5.782,3.866-8.948,5.379-7.6,3.637-15.326,7.028-23.032,10.448a62.336,62.336,0,0,0-9.019,4.558c-1.864,1.218-3.555,2.521-3.894,4.92-4.267,8.59-6.219,17.968-9.127,27.015a101.8,101.8,0,0,0-2.425,10.549,103.444,103.444,0,0,1-3.074,12.266c-.769,2.274-1.162,4.673-1.768,7-.694,2.683-1.439,5.353-2.158,8.031q-2.715,10.114-5.436,20.228c-.282,1.044-.71,2.049-1.041,3.082-1.468,4.578-2.925,9.158-4.464,13.986a4.886,4.886,0,0,0,1.28.058,19.129,19.129,0,0,0,2.765-.829c5.019-2.041,10.051-4.053,15.023-6.2,3.426-1.482,6.723-3.263,10.152-4.744a13.572,13.572,0,0,0,5.248-4.3,30.142,30.142,0,0,0,1.834-2.689c3.209-5.087,6.78-9.942,9.423-15.389,1.678-3.462,3.719-6.748,5.49-10.168,1.827-3.529,3.57-7.106,5.263-10.7,1.176-2.5,2.06-5.109,3.941-7.258a17.883,17.883,0,0,0,1.8-3.527,2.194,2.194,0,0,1,3.007-1.212,32.458,32.458,0,0,1,2.97,1.327c5.112,2.433,10.209,4.9,15.334,7.305,1.731.813,3.528,1.481,5.359,2.242a8.179,8.179,0,0,0,2.354-4.1c.722-2.551,1.475-5.1,2.02-7.692a36.669,36.669,0,0,1,3.781-9.695c2.49-4.686,6.31-7.426,11.036-9.193,3.61-1.349,7.271-2.578,10.948-3.737,1.711-.539,3.515-.789,5.277-1.159a5.686,5.686,0,0,0,1.065-.161c4.795-2.077,9.975-2.728,14.963-4.084a71.751,71.751,0,0,1,17.847-2.413c4.649-.071,9.139.577,13.074,3.368a6.08,6.08,0,0,0,1.631.77c3.4,1.106,5.536,3.77,7.773,6.29a3.474,3.474,0,0,1,.879,1.922c.174,2.929.676,5.914.257,8.871a16.881,16.881,0,0,1-4.279,8.375,15.352,15.352,0,0,1-3.132,3.147,37.01,37.01,0,0,1-4.774,2.379,54.493,54.493,0,0,1-10.627,3.444c-5.66,1.16-11.253,2.65-16.878,3.988-2.811.669-5.63,1.3-8.442,1.97A42.92,42.92,0,0,0,355.232,109a5.683,5.683,0,0,0-1.532.951c-3.387,3.417-6.922,6.685-8.588,11.455a75.909,75.909,0,0,1-3.515,7.532,203.453,203.453,0,0,1-14.037,24.83c-2.266,3.408-4.4,6.9-6.673,10.3-2.078,3.1-4.307,6.1-6.406,9.194-3.8,5.578-7.68,11.1-11.269,16.812-2.757,4.385-6.777,7.15-11.128,9.512-3.382,1.837-7.032,3.182-10.45,4.959-4.169,2.166-8.766,3.359-12.811,5.807a39.119,39.119,0,0,1-4.319,1.785c-5.592,2.516-11.42,4.5-17.069,7.516,2.073,5.771,4.019,11.189,6.017,16.748a16.94,16.94,0,0,0,4.579.259q7.778-.09,15.553-.2c3.851-.05,7.709.2,11.546-.491a24.972,24.972,0,0,1,4.333-.132c7.356-.006,14.71.024,22.066,0,1.564,0,3.127-.19,4.689-.279a14.144,14.144,0,0,1,1.8-.035c2.355.168,3.456,1.193,3.8,3.528a6.33,6.33,0,0,1,.046,1.442c-.457,5.365,1.246,5.642-5.756,5.765-7.587.132-15.168.662-22.751.979-3.252.136-6.511.157-9.764.26-8.795.278-17.6.407-26.377.915-6.743.391-13.5.331-20.224.8-4.942.345-9.876.357-14.81.564a8.523,8.523,0,0,0-2.16.138c-2.954.924-5.985.553-8.981.613q-12.46.248-24.922.349c-5.786.049-11.572-.04-17.36-.019-5.305.018-10.609.127-15.914.152-12.781.06-25.564.086-38.344.15a21.888,21.888,0,0,0-4.676.306,27.507,27.507,0,0,1-8.471.128,27.016,27.016,0,0,1-1.127-2.539L83.4,196.379Z" transform="translate(25.261)" fill="#16161d" fill-rule="evenodd"/><path d="M329.449,122.3a4.5,4.5,0,0,0-2.96-.69c-1.425.25-2.882.339-4.286.659a12.785,12.785,0,0,1-10.049-1.709,23.511,23.511,0,0,1-3.047-1.932c-2.673-2.334-5.906-3.706-8.911-5.476a9.5,9.5,0,0,0-10.769,1.3c-.888.8-1.589,1.806-2.434,2.66a62.659,62.659,0,0,1-5.927,5.783,14.464,14.464,0,0,1-10.827,3.157,6.081,6.081,0,0,0-2.135.022,13.555,13.555,0,0,0-6.584,4.251c-1.207,1.3-1.123,2.815-.232,4.356a3.96,3.96,0,0,0,2.835,2.049,20.606,20.606,0,0,0,3.951.3c4.816-.152,9.63-.374,14.443-.6,1.2-.056,2.4-.238,3.6-.353a6.446,6.446,0,0,1,1.791-.117c2.3.446,4.563.024,6.844-.075a38.063,38.063,0,0,1,6.839.05,44.471,44.471,0,0,0,5.378.414c4.82.083,9.639.2,14.454.412a4.651,4.651,0,0,0,2.432-.357c1.07-.551,2.152-1.091,3.166-1.735a7.358,7.358,0,0,0,3.552-8.344c-.27-1.293-.7-2.551-1.116-4.025Zm-12.562,17.677c-.888-.083-2.565-.243-4.243-.4a15.756,15.756,0,0,0-1.8-.146c-4.937.107-9.874.236-14.809.359a2.291,2.291,0,0,1-.36.031c-4.947-.69-9.849.644-14.782.318a85.489,85.489,0,0,0-13.708.314,13.459,13.459,0,0,1-4.283-.5,7.363,7.363,0,0,1-5.672-5.952,6.989,6.989,0,0,1,2.455-6.822,22.826,22.826,0,0,1,6.415-4.011,6.331,6.331,0,0,1,2.094-.437,24.131,24.131,0,0,1,3.613-.05,10.106,10.106,0,0,0,7.026-2.308,33.036,33.036,0,0,0,6.125-6.113,17.824,17.824,0,0,1,2.145-2.43,13.646,13.646,0,0,1,15.187-1.5,77.936,77.936,0,0,1,10.382,6.543,11.392,11.392,0,0,0,9.58,1.994c1.767-.367,3.56-.628,5.354-.84a7.6,7.6,0,0,1,7.282,3.088c3.312,4.212,3.328,7.956.977,12.076a11.814,11.814,0,0,1-5.789,4.706c-3.48,1.553-7.2,1.9-10.943,2.08-.481.024-.963,0-2.247,0Z" transform="translate(100.318 42.212)" fill="#16161d" fill-rule="evenodd"/><path d="M13.82,125.47,0,130.112c1.449,4.937,3,9.513,4.847,14.161l13.788-4.712c-1.613-4.717-3.161-9.249-4.815-14.092Z" transform="translate(0 48.756)" fill="#16161d" fill-rule="evenodd"/><path d="M72.054,132.056c-1.612-4.717-3.159-9.249-4.815-14.092L53.421,122.6c1.448,4.94,3,9.513,4.847,14.161Z" transform="translate(20.847 45.827)" fill="#16161d" fill-rule="evenodd"/><path d="M103.4,190.854l-.713.239L86.7,142.675l-15.882,5.332,5.565,16.13L65.4,167.82l6.348,18.4-13,4.365c1.449,4.938,3,9.513,4.847,14.161l13.787-4.71c0-.014-.009-.028-.014-.042l12.346-4.051c1.41,4.763,2.92,9.2,4.71,13.708l13.788-4.709c-1.613-4.719-3.161-9.249-4.816-14.093Z" transform="translate(22.928 55.47)" fill="#16161d" fill-rule="evenodd"/><path d="M65.355,145.586c-1.612-4.718-3.159-9.248-4.815-14.093l-13.819,4.642c1.448,4.94,3,9.513,4.847,14.161l13.787-4.71Z" transform="translate(18.233 51.107)" fill="#16161d" fill-rule="evenodd"/><path d="M70.308,195.493c1.449,4.94,3,9.513,4.848,14.161l13.787-4.71c-1.612-4.717-3.16-9.249-4.814-14.092Z" transform="translate(27.438 74.271)" fill="#16161d" fill-rule="evenodd"/><path d="M15.342,195.493c1.448,4.94,3,9.513,4.847,14.161l13.787-4.71c-1.612-4.717-3.16-9.249-4.814-14.092l-13.82,4.641Z" transform="translate(5.987 74.271)" fill="#16161d" fill-rule="evenodd"/><path d="M104.909,194.37,91.09,199.011c1.45,4.94,3,9.513,4.847,14.161l13.788-4.709c-1.613-4.719-3.16-9.249-4.816-14.093Z" transform="translate(35.548 75.644)" fill="#16161d" fill-rule="evenodd"/><path d="M22.528,174.126c-.032-.085-.062-.167-.1-.252L8.662,178.658c1.656,4.844,3.2,9.376,4.815,14.093l13.014-4.446c.022.064.043.124.064.189l13.787-4.713c-1.383-4.8-2.954-9.373-4.83-14.165l-12.983,4.51Z" transform="translate(3.38 65.984)" fill="#16161d" fill-rule="evenodd"/><path d="M19.354,139.013l8.593,26.351,13.786-4.71-8.609-26.426Z" transform="translate(7.553 52.174)" fill="#16161d" fill-rule="evenodd"/><path d="M56.03,207.686c-1.516-4.436-2.985-8.738-4.548-13.31l-13.82,4.641c1.359,4.634,2.818,8.946,4.517,13.3l-.2.065c1.654,4.844,3.2,9.376,4.814,14.093,4.691-1.6,23.8-7.838,28.482-9.438-1.383-4.806-2.956-9.374-4.832-14.167l-14.417,4.817Z" transform="translate(14.698 75.647)" fill="#16161d" fill-rule="evenodd"/><path d="M65.483,178.2l-4.817-14.417,13.309-4.548-4.64-13.819c-4.634,1.358-8.947,2.818-13.3,4.517l-.065-.2c-4.843,1.656-9.374,3.2-14.092,4.814,1.6,4.691,7.838,23.8,9.438,28.482,4.806-1.383,9.373-2.956,14.167-4.831Z" transform="translate(16.343 56.541)" fill="#16161d" fill-rule="evenodd"/></g></svg>