<svg xmlns="http://www.w3.org/2000/svg" width="596.5" height="453.937" viewBox="0 0 596.5 453.937">
  <g id="image_experience" transform="translate(-1139.5 -2752)">
    <g id="result" transform="translate(1264.235 2764.506)">
      <path id="Tracé_6" data-name="Tracé 6" d="M386.44,204.162c.1-.206.113-.356.194-.407,3.465-2.193,7.256-1.671,11.005-1.228.854.1,1.037,1.613.307,2.174a4.368,4.368,0,0,1-1.639.887,12.9,12.9,0,0,1-9.867-1.426Zm-138.606-9.812a3.584,3.584,0,0,1-3.934-2.722c-.159-.764-.125-1.483.883-1.783a20.749,20.749,0,0,1,7.194-.607c1.252.069,1.165,1.094,1.322,1.959.172.949.225,1.825-.943,2.117-1.6.4-3.222.742-4.522,1.036Zm163.932-28.2c1.761-.114,2.621-.039,2.886,1.1.233,1,.49,1.972-.708,2.637-.98.542-1.887,1.217-2.831,1.825a10.76,10.76,0,0,1-1.616.987c-1.187.5-3.681-.288-4.068-1.214-.314-.75.429-2.55,1.568-3.156C408.768,167.389,410.642,166.653,411.766,166.147Zm4.165,14.279h.166c0,1.389.016,2.779,0,4.168-.033,2.4-.547,2.714-2.615,1.51a8.664,8.664,0,0,1-2.019-1.65,1.348,1.348,0,0,1-.136-1.286,8.577,8.577,0,0,0,1.548-7.5c-.244-1.028.735-1.159,1.469-1.28.861-.143,1.545.145,1.576,1.116C415.968,177.14,415.93,178.784,415.93,180.426Zm-9.01,9.262c.134-.742.23-1.5.418-2.226a.906.906,0,0,1,1.491-.446,52.732,52.732,0,0,0,4.849,3.647c1.747,1.021,1.983,2.339,1.586,4.067-.288,1.255-1.032,1.631-2.241.951a38.2,38.2,0,0,0-3.89-2.374,3.4,3.4,0,0,1-2.212-3.619Zm-11.412-4.618c3.652-.2,3.627-.153,5.1.746.758.462,1.226,1.133.886,1.849a2.413,2.413,0,0,1-1.638,1.244c-3.282.2-6.573.225-9.863.292a1.82,1.82,0,0,1-1.1-.2,3.036,3.036,0,0,1-1.053-1.387,1.426,1.426,0,0,1,.657-1.209,13.63,13.63,0,0,1,3.212-1.055,34.832,34.832,0,0,1,3.793-.281Zm-9.942,10.364a11.61,11.61,0,0,1,2.479-.966c2.874-.318,5.758-.61,8.646-.724,1.305-.05,2.911-.282,3.646,1.274.307.653-1.74,2.647-3.014,3.091a2.811,2.811,0,0,1-.744.129c-3.816.21-7.565.128-11.013-2.8ZM243.17,41.448a3.767,3.767,0,0,1,3.4,1.287c3.644,3.491,6.849,7.463,11.089,10.318.922.622,1.077,1.828.424,3.059a1.386,1.386,0,0,1-1.229.407,2.633,2.633,0,0,1-1.217-.874,55.869,55.869,0,0,0-7.408-7.011,39.072,39.072,0,0,1-3.646-3.272,24.917,24.917,0,0,1-2.372-2.916c-.1-.14.139-.712.369-.865.282-.192.72-.154.591-.133ZM158.907,311.4c.175-.188.307-.454.5-.506a.876.876,0,0,1,.7.15c1.25,1.078,2.323,2.468,3.74,3.216,1.66.875,2.595,2.391,3.878,3.562.965.883,1.387,2.393,1.951,3.668a1.042,1.042,0,0,1-1.181,1.434,4.033,4.033,0,0,1-1.116-.222c-1.862-.806-3.736-1.589-5.542-2.509a2.543,2.543,0,0,1-1.08-1.449c-.676-2.309-1.242-4.652-1.843-6.984a1.376,1.376,0,0,1,0-.359ZM203.646,41.747c.352-.3.589-.686.878-.731,2.951-.463,5,.86,6.814,3.128,2.593,3.251,5.394,6.34,8.182,9.427,1.447,1.6,1.513,2.559-.18,4.08a1.323,1.323,0,0,1-1.277.079c-1.687-1.519-3.3-3.124-4.929-4.707a71.99,71.99,0,0,1-7.651-8.335c-.67-.9-1.2-1.9-1.838-2.941Zm194.89,138.986c-3.316-.274-5.728-.437-8.132-.7a6.99,6.99,0,0,1-2.128-.694,1.093,1.093,0,0,1-.155-1.654,12.7,12.7,0,0,1,9.166-2.847c1.646.147,3.285.358,4.927.526a14.033,14.033,0,0,1,6.135,1.931,1.543,1.543,0,0,1,.672,1.168,2.123,2.123,0,0,1-.826,1.168,2.005,2.005,0,0,1-1.069.353c-3.159.29-6.319.552-8.591.746ZM277.794,377.5c-3.745-.37-7.541-.744-11.335-1.124a5.843,5.843,0,0,1-.742-.164,1.36,1.36,0,0,1-1.184-1.652q.489-2.816,1.114-5.607a1.108,1.108,0,0,1,1.469-.837,29.406,29.406,0,0,1,10.58,5.047,12.475,12.475,0,0,1,2.386,2.9.86.86,0,0,1-.712,1.359c-.506.054-1.015.052-1.576.077ZM230.968,41.486c1.88-.248,3.269.827,4.53,2.13.613.633,1.1,1.4,1.731,2,4.2,4.038,8.471,8.008,12.626,12.1a29.473,29.473,0,0,1,2.954,3.91c.126.174.2.6.091.7a8.08,8.08,0,0,1-2.259,1.88c-.4.164-1.313-.545-1.8-1.047-1.31-1.354-2.456-2.871-3.78-4.21-1.776-1.8-3.723-3.425-5.485-5.235-2.993-3.078-5.774-6.365-9.2-9.014a4.8,4.8,0,0,1-1.137-1.926c-.329-.765.057-1.176.858-1.226l.865-.058ZM280.02,355.9c-1.362,0-3.272-.036-5.181.009s-3.212-1.341-4.817-2.011c.021-1.367-.021-2.738.088-4.1a8.441,8.441,0,0,1,.586-2.21c.213-.574.686-.689,1.2-.329,1.132.791,2.144,1.926,3.4,2.341,5.775,1.91,11.619,2.818,17.5.254a2.154,2.154,0,0,1,3.041,1.335c.5,1.27-.043,2.166-1.81,2.673C289.629,355.127,285.24,356.475,280.02,355.9ZM190.344,41.691c2.235-.579,4.016-.541,5.49,1.1,4.986,5.554,10,11.081,14.962,16.66a24.344,24.344,0,0,1,2.418,3.414c.774,1.25.255,2.055-1.274,2.354A3.7,3.7,0,0,1,208,63.671c-5.167-6.257-10.134-12.682-15.57-18.717a23.709,23.709,0,0,1-2.084-3.262Zm-1.824,169.37c.009.082.019.161.028.241h.381a30.274,30.274,0,0,1,15.6,4.032c.263.156.377.569.56.862a2.78,2.78,0,0,1-.906.416c-2.026.109-4.053.147-6.077.249a14.582,14.582,0,0,0-2.621.312c-1.956.463-3.87,1.122-5.837,1.512a11.969,11.969,0,0,1-8.43-1.406c-2.331-1.337-2.152-3.791.246-5.036a4.6,4.6,0,0,1,1.445-.448c1.865-.27,3.737-.493,5.608-.735ZM249.193,81.154c0,2.141.038,3.537-.009,4.93-.061,1.872-.427,2.135-1.98,1.321-2.913-1.525-5.772-3.15-8.682-4.681a1.434,1.434,0,0,1-.67-1.931,12.108,12.108,0,0,0,.194-6c-.347-1.991-.4-4.035-.558-6.057-.085-1.072.422-1.555,1.278-1.078a13.847,13.847,0,0,0,6.989,1.4c2.352,0,2.4.064,2.6,2.234.333,3.53.6,7.066.834,9.867Zm98.236,297.41a8.9,8.9,0,0,1,.489-1.542c1.507-2.776,3.149-5.485,4.551-8.312,1.463-2.948,4.067-4.8,6.333-6.953,1.379-1.313,3.1-1.28,4.125-.161a23.78,23.78,0,0,1,5.446,8.58c.875,2.691.566,3.75-2.084,4.786a90.212,90.212,0,0,1-10.09,3.2A22.047,22.047,0,0,1,347.429,378.565Zm-42.8,8.591v-.134c-4.444-.148-8.885-.355-13.329-.429-6.877-.113-13.756-.087-20.633-.225a59.389,59.389,0,0,1-7.218-.678c-.626-.091-1.677-.846-1.647-1.228a9.228,9.228,0,0,1,1-3.627c.566-1.039,1.838-.664,2.82-.6,3.676.254,7.345.624,11.023.854,5.454.344,10.908.656,16.366.884,11.442.478,22.884.988,34.331,1.3,6.728.181,13.5.749,20.16-.887a18.783,18.783,0,0,1,1.9-.088c4-.533,8.078-.087,12.019-1.687,2.087-.846,4.3-1.486,6.4-2.4.523-.229,1.542-.4,1.723-.148.6.823-.336,1.367-.809,1.8-3.469,3.209-7.443,5.23-12.322,5.219-2.022,0-4.046.318-6.07.5-4.937.438-9.762,1.7-14.785,1.624C325.246,387.05,314.936,387.155,304.625,387.155ZM169.4,45.751c0,.04,0,.079,0,.118a24.3,24.3,0,0,0-2.667.015,5.918,5.918,0,0,0-5.411,5.127c-.85,4.141-.088,8.1,3.164,11.224a21.215,21.215,0,0,1,2.872,3c1.4,2.025,2.889,3.868,1.929,6.869-1.5,4.686-2.339,9.581-3.485,14.381-.068.283-.363.511-.549.764-.262-.247-.671-.45-.76-.748-1.631-5.54-4.688-10.392-7.382-15.42-1.2-2.236-2.4-4.474-3.482-6.769-2.547-5.4-2.392-11.413-3.737-17.088a2.833,2.833,0,0,1-.041-.761c.1-2.495.892-3.463,3.4-3.666,3.421-.277,6.854-.417,10.284-.56,5.716-.237,11.433-.433,17.15-.638.764-.027,1.531-.04,2.29,0,1.4.079,1.9.715,1.9,2.25,0,1.213-.788,1.464-1.759,1.493q-6.859.206-13.718.4Zm124.93,281.805c.008-.063.016-.125.024-.189,1.907,0,3.813-.022,5.717.011.864.013,1.455.328,1.2,1.39-.753,3.085-.5,3.988-1.091,7.1-.274,1.453-1.2,1.846-2.317,2.137-1.346.355-2.76.478-4.07.924-1.841.626-2.369,1.549-2.278,3.471.038.758.238,1.512.235,2.268,0,1.556-.676,2.539-2.126,2.7-4.314.473-8.682.7-12.754-1.1a15.506,15.506,0,0,1-4.147-3.26,2.607,2.607,0,0,1-.582-2.082c1.155-5.322,1.315-8.46,2.623-13.747a1.827,1.827,0,0,1,1.379-1.007,60.492,60.492,0,0,1,6.07.218c4.045.342,8.08.768,12.12,1.159ZM157.109,39.052c-2.163,0-3.435.005-4.706,0a.979.979,0,0,1-1.073-1.2,6.73,6.73,0,0,1,.329-1.854c.643-1.647,1.307-3.292,2.083-4.879a41.325,41.325,0,0,1,5.564-9.028,8.649,8.649,0,0,1,5.569-2.92,27.768,27.768,0,0,1,12.4,1.018,21.5,21.5,0,0,1,4.3,1.362,35.391,35.391,0,0,1,10.834,8.869c.864,1.09,1.792,2.135,2.569,3.284a1.354,1.354,0,0,1-.361,1.228c-3.272.974-6.529,2.386-9.874,2.654-9.488.76-19.013,1.044-27.637,1.471ZM104.685,434.238c-.763,0-1.529.033-2.29,0a12.682,12.682,0,0,1-11.286-7.216c-2.981-5.687-1.928-14.308,2.575-19.361,4.278-4.8,9.442-7.648,16.176-6.869a14.506,14.506,0,0,1,9.411,4.527c4.462,4.962,4.977,11.081,2.416,16.8-3.163,7.066-8.515,12.033-17,12.12Zm185.1-13.2c.3-8.955,5.265-15.949,12.9-18.936,7.085-2.768,17.643.6,20.042,9.426a17.261,17.261,0,0,1-.123,9.355c-2.011,7.481-9.47,14.421-18.66,14.087a14.076,14.076,0,0,1-9.134-3.2A15.045,15.045,0,0,1,289.786,421.036Zm18.591-81.4c1.4,0,2.8-.052,4.2.025a2.773,2.773,0,0,1,1.742.553c2.543,2.743,5.968,4.267,8.838,6.549a29.52,29.52,0,0,0,3.4,2.352c3.039,1.789,6.419,2.336,9.685,3.269a53.681,53.681,0,0,0,8.178,1.783,46.519,46.519,0,0,1,11.693,3.269c.943.38,1.146,1.067.444,1.715-1.676,1.549-3.392,3.061-5.183,4.475a3.745,3.745,0,0,1-2.1.7,27.126,27.126,0,0,1-5.336-.186,119.832,119.832,0,0,1-15.15-3.567c-3.017-.943-6.015-1.958-9.027-2.918-1.2-.383-2.421-.708-3.633-1.055-4.209-1.206-7.7-3.838-11.515-5.813-3.37-1.742-5.651-4.623-8.145-7.3a1.219,1.219,0,0,1,.648-2.074c3.728-.712,7.353-2.175,11.264-1.776ZM173.141,177.71V177.6c1.4,0,2.8-.025,4.2.006q3.244.071,6.485.21c.764.031,1.239.5.943,1.234a14.29,14.29,0,0,1-1.433,2.613c-.78,1.155-1.74,2.193-2.476,3.372-2.472,3.971-6.231,6.628-9.672,9.609a6.287,6.287,0,0,1-1.649.955c-2.8,1.193-5.6,2.375-8.416,3.518a69.735,69.735,0,0,1-24.117,4.953,8.841,8.841,0,0,1-2.611-.381c-1.095-.307-1.462-1.163-.722-2.035a49.832,49.832,0,0,1,5.2-5.53c4.5-3.9,9.126-7.642,13.732-11.411,2.252-1.843,4.612-3.554,6.847-5.414a7.212,7.212,0,0,1,5.3-1.628c2.792.14,5.6.035,8.4.035ZM226.647,47a26.623,26.623,0,0,1,1.2,2.8c1.43,5,2.793,10.026,4.218,15.031A48.137,48.137,0,0,1,234.1,77.175a3.8,3.8,0,0,1-4.41,4.011,8.561,8.561,0,0,1-3.193-1.093,14.337,14.337,0,0,1-4.976-5.587,10.477,10.477,0,0,0-1.959-2.761,2.5,2.5,0,0,0-2.1-.267c-.861.285-.807,1.278-.55,1.973.567,1.541,1.307,3.016,1.939,4.534.536,1.285.482,1.579-.8,1.993a50.32,50.32,0,0,0-10.843,5.314c-2.5,1.54-5.489,2.294-8.261.455a21.8,21.8,0,0,1-4.16-3.775c-1.981-2.248-2.788-5.141-3.619-7.923a31.443,31.443,0,0,1-1.409-13.159.714.714,0,0,1,.433-.486.81.81,0,0,1,.676.175,3.392,3.392,0,0,1,.864,1.234c.49,1.779,1.847,2.653,3.323,3.466.993.548,1.888,1.3,2.919,1.748,3.737,1.633,7.53,3.254,11.746,2.538a41.3,41.3,0,0,0,7.372-1.8,7.849,7.849,0,0,0,4.986-5.375c1.252-4.255,2.938-8.383,3.622-12.8a16.08,16.08,0,0,1,.943-2.58ZM358.6,179.715a6.227,6.227,0,0,1,.774-1.337c3.386-3.758,6.863-7.437,10.194-11.244,1.986-2.27,4.087-4.141,7.311-4.168a1.433,1.433,0,0,0,.682-.3c1.293-.865,2.721-.627,4.07-.361a46.635,46.635,0,0,1,11.74,4.22,9.951,9.951,0,0,1,2.784,2.5,1.407,1.407,0,0,1-.984,2.293,9.436,9.436,0,0,1-1.9.17c-2.413-.006-4.831-.03-7.246-.085a2.407,2.407,0,0,1-1.458-.3c-1.627-1.554-3.945-.8-5.739-1.83-.724-.415-1.488.076-1.873.851-.66,1.329-.427,2.193.818,3.28.845.738,1.862,1.256,2.224,2.5a13.037,13.037,0,0,1-.246,8.225c-.626,1.761-1.6,3.094-3.679,3.447-1.368.232-1.783.979-1.677,2.057a2.035,2.035,0,0,0,2.262,2.06,12.017,12.017,0,0,0,2.957-.613c.966-.3,1.862-.835,2.833-1.1a1.047,1.047,0,0,1,1.092,1.759c-.571.659-1.4,1.1-1.978,1.75a2.51,2.51,0,0,0-.553,2.842c.626,1.218,1.973,2.268,2.1,3.484.121,1.192-.93,2.489-1.4,3.763a3.864,3.864,0,0,0-.017,1.14,1.737,1.737,0,0,1-1.264,1.707c-.839.3-1.669.621-2.513.91a2.222,2.222,0,0,1-2.459-.56,16.506,16.506,0,0,1-1.233-1.441c-3.819-4.9-7.367-10-11-15.042-2.226-3.094-2.741-6.745-4.557-9.893A2.7,2.7,0,0,1,358.6,179.715Zm-4.715,46.215a7.8,7.8,0,0,1-.424-1.665,48.359,48.359,0,0,0-3.154-16.754c-.749-1.857-1.455-3.922-2.787-5.314-3.346-3.5-7.141-6.507-12.1-7.528q-2.426-.5-4.839-1.053c-.456-.106-1.189-.227-1.274-.5-.257-.843.619-.889,1.122-1.2,3.009-1.879,5.935-3.908,9.029-5.632,3.764-2.1,7.686-3.914,11.5-5.917,1.434-.752,2.237-.348,3.009,1.141,1.635,3.149,3.48,6.195,5,9.4,1.89,3.99,4.459,7.664,5.384,12.125.285,1.378,1.491,2.557,2.235,3.851a46.8,46.8,0,0,1,4.516,9.606,1.129,1.129,0,0,1-.6,1.559c-2.754,1.259-5.526,2.476-8.277,3.739-1.6.735-3.187,1.494-4.749,2.3-.9.467-1.72,1.07-2.593,1.584a4.8,4.8,0,0,1-1.009.259ZM200.986,36.368a31.307,31.307,0,0,0,5.082-1.588c5.465-2.933,11.593-3.724,17.4-5.522,4.595-1.422,9.354-2.329,13.814-4.194a18.486,18.486,0,0,1,6.253-1.475,12.775,12.775,0,0,0,4.062-.967,19.625,19.625,0,0,1,5.575-1.171c4.425-.437,8.833-1.082,13.267-1.361a28.136,28.136,0,0,1,7.564.456,5.008,5.008,0,0,1,2.475,8.338c-1.68,1.7-3.769,2.984-5.556,4.587a10.7,10.7,0,0,1-6.516,2.807c-6.341.485-12.676,1.054-19.024,1.395-3.936.211-7.916-.214-11.828.151-6.081.566-12.133-.23-18.207.048-4.153.189-8.345-.461-12.517-.763a10.1,10.1,0,0,1-1.844-.738ZM168.332,13.66c2.956-2.289,5.511-4.116,8.584-5.1,3.014-.963,6.031-1.914,9.018-2.952a39.164,39.164,0,0,1,6.2-1.4,12.726,12.726,0,0,1,2.084-.423c1.028-.021,2.055-.011,3.082.017a70.5,70.5,0,0,1,10.663,1.107,25.275,25.275,0,0,1,5.115,1.16,9.774,9.774,0,0,0,1.594.666c4.139.97,8.145,2.214,12.181,3.542a6.825,6.825,0,0,1,1.4.611q5.211,3.151,10.4,6.34a11.3,11.3,0,0,1,1.583,1.057,6.518,6.518,0,0,1,.872,1.19c-.482.336-.954.7-1.458,1a1.945,1.945,0,0,1-.741.158c-5.1.585-9.83,2.511-14.536,4.337a57.9,57.9,0,0,1-9.117,2.681c-.62.13-1.242.254-1.849.432-4.267,1.247-8.526,2.532-12.807,3.732a2.08,2.08,0,0,1-1.721-.235,51.289,51.289,0,0,1-5.629-6.155c-3.583-5.063-8.578-7.757-14.374-9.251-2.338-.6-4.738-.966-7.1-1.489-.977-.217-1.923-.567-3.444-1.028Zm1.086,35.97.009-.1a25.359,25.359,0,0,1,3.4.366,2.912,2.912,0,0,1,1.854,1.126,16.274,16.274,0,0,1,1.732,4.967c.73,6.7,1.058,13.439,1.862,20.126a151.965,151.965,0,0,0,6.535,27.755,4.679,4.679,0,0,0,.777,1.3c1.594,2.141,3.13,4.33,4.828,6.386,4.606,5.583,9.484,10.922,14.536,16.106a21.425,21.425,0,0,1,1.926,2.351c.386.529.054.973-.437,1.2a6.561,6.561,0,0,1-1.442.4,24.911,24.911,0,0,1-10.586.084c-3.822-.869-7.763-1.43-11.415-2.771-3.893-1.428-7.848-2.976-11.122-5.689-2.636-2.184-5.208-4.444-7.762-6.723a3.644,3.644,0,0,1-.944-4.175c1.1-3.5,1.934-7.076,3.1-10.548a95.07,95.07,0,0,0,3.554-13.214c1.154-6.377,2.26-12.763,3.4-19.142a4.688,4.688,0,0,0-1.237-4.209c-1.529-1.7-2.837-3.62-4.5-5.161a9.244,9.244,0,0,1-2.615-4.953c-.843-3.542.585-5.336,4.165-5.477.126-.005.252,0,.38,0ZM132.295,341.981c-.079.014-.159.028-.239.041a10.686,10.686,0,0,1-.017,1.9c-.294,1.589-.678,3.16-1.026,4.738-2.011-.67-2.017-2.729-2.841-4.2a7.328,7.328,0,0,1-.508-2.216c-.259-1.373-.488-2.751-.741-4.124-.662-3.6-1.951-7.1-1.575-10.857a4.46,4.46,0,0,0-.082-1.14c-.743-4.44-1.728-8.742-5.868-11.467a21.8,21.8,0,0,1-2.9-2.445c-1.385-1.311-2.771-2.631-4.042-4.046a3.074,3.074,0,0,1-.341-3.821,51.378,51.378,0,0,1,6.015-9.67c1.38-1.638,2.872-3.2,4.106-4.94a22.5,22.5,0,0,1,6.54-5.75c.872-.563,1.376-.585,2.214.295q6.831,7.176,13.887,14.136c1.525,1.509,3.408,2.654,4.947,4.152a17.6,17.6,0,0,1,3.575,4.379,32.531,32.531,0,0,1,1.94,6.147c1.148,4.169,2.172,8.375,3.378,12.527,1.062,3.659,2.416,7.235,3.416,10.911a50.473,50.473,0,0,1,.971,6.4,1.134,1.134,0,0,1-.151.735,2.195,2.195,0,0,1-.769.73c-.145.073-.523-.1-.662-.273a7.1,7.1,0,0,1-1.072-1.551c-2.94-6.617-6.343-13.029-8.719-19.9a62.431,62.431,0,0,0-2.664-6.31,6.139,6.139,0,0,0-1.673-2,1.309,1.309,0,0,0-2.042.9,8.29,8.29,0,0,0,.456,2.932c1.551,4.168,3.31,8.26,4.777,12.454,1.631,4.664,3.1,9.388,4.482,14.131.41,1.406.735,3.066-.358,4.36-.619.731-2.145-.757-3.1-3.257-2.213-5.8-4.891-11.418-6.76-17.364-.872-2.77-2.156-5.414-3.3-8.1a8.286,8.286,0,0,0-1.307-2.293,1.806,1.806,0,0,0-2.4-.474,1.716,1.716,0,0,0-.745,2,42.953,42.953,0,0,0,1.307,4.385c1.161,3.23,2.488,6.4,3.56,9.659,1.028,3.129,1.854,6.327,2.7,9.513.485,1.827.857,3.687,1.207,5.547a1.014,1.014,0,0,1-.5.853,1.105,1.105,0,0,1-1-.27c-1.348-1.8-3.128-3.266-3.7-5.646a53.934,53.934,0,0,0-2.348-7.226c-2-5.074-4.141-10.1-6.229-15.137-.31-.749-.774-1.348-1.7-1.222a2.106,2.106,0,0,0-1.87,2.079,7.668,7.668,0,0,0,.224,1.5c.932,4.354,1.91,8.7,2.8,13.063.35,1.72.508,3.479.753,5.219Zm52.822-286.96-.137,0c.259,3.807.479,7.618.787,11.42.173,2.143.449,4.28.752,6.409.949,6.643,4.382,11.818,9.53,15.96a9.635,9.635,0,0,0,8.564,1.979,28.5,28.5,0,0,0,6.36-2.491c3.288-1.617,6.687-3.01,10.016-4.545a2.8,2.8,0,0,1,2.815.208c2.5,1.339,5.284,2.276,8.082,1.453a7.131,7.131,0,0,1,5.823.861,84.021,84.021,0,0,1,8.007,5.1c3.545,2.573,3.491,2.665,2.421,6.849a18.348,18.348,0,0,1-1.1,3.649c-1.014,2.028-1.852,4.385-3.462,5.827-4.529,4.057-9.727,6.891-16.158,6.383a8,8,0,0,0-2.276.213c-6.4,1.39-12.627.334-18.81-1.306a13.942,13.942,0,0,1-2.8-1.177q-2.7-1.4-5.326-2.93a17.892,17.892,0,0,1-2.837-1.884,35.628,35.628,0,0,1-10.728-17.218,89.823,89.823,0,0,1-2.59-11.121c-.523-3.24-.512-6.566-.744-9.855a6.641,6.641,0,0,0-.2-1.882c-.85-2.21-.665-4.509-.782-6.795s-.311-4.566-.643-6.824c-.6-4.037-.356-4.392,3.506-4.31,1.308.028,1.792.4,1.912,1.837.113,1.385.025,2.787.025,4.182ZM419.729,168.74c0-1.089-.047-3,.016-4.905.046-1.392.46-1.759,1.918-1.647,2.022.158,4.031.582,6.053.643,4.957.153,9.919.15,14.878.236,3.042.054,6.091-.147,9.106.585a15.611,15.611,0,0,0,3.421.117c1.775.024,3.553-.038,5.32.058,2.314.129,2.3.222,2.382,2.416.167,4.716-.616,9.358-1.1,14.021-.208,2.014-.673,4.005-1.025,6.007-.637,3.618-1.315,7.229-1.9,10.856a11.884,11.884,0,0,1-4.256,7.795c-8.673,6.9-18.507,7.046-27.323,1.811-1.817-1.077-3.673-2.457-4.289-4.67a42.962,42.962,0,0,1-1.8-8.156c-.61-8.1-.925-16.231-1.4-25.167Zm-398.7,85.3c0-2.093-.02-3.362.023-4.628.005-.172.3-.429.495-.476a.721.721,0,0,1,.633.222c1.561,2.612,3.089,5.24,4.63,7.862.7,1.2,1.469,2.363,2.115,3.591q4.335,8.257,8.609,16.541c1.167,2.256,2.4,4.489,3.406,6.816,2.325,5.362,4.474,10.8,6.8,16.168a131.875,131.875,0,0,1,8.149,24.58,27.5,27.5,0,0,1,.072,13.234,53.139,53.139,0,0,0-1.072,5.232,54.506,54.506,0,0,1-4.951,15.564c-.978,1.959-2.586,2.194-4.257,2.577a1.633,1.633,0,0,1-1.275-.638,14.838,14.838,0,0,1-1.036-2.005c-2.9-5.389-4.766-11.22-7.157-16.827-1.988-4.661-4.411-9.116-5.718-14.089-.463-1.764-1.3-3.477-1.648-5.337-1.113-5.865-2.341-11.705-3.46-17.568-.666-3.5-1.438-7-1.751-10.534-.461-5.186-.56-10.4-.8-15.608-.088-1.907-.066-3.824-.217-5.727-.525-6.592-1.1-13.179-1.593-18.951Zm183.336,141.01v-.361H195.2c-5.091,0-10.183.044-15.272-.016-10.175-.117-20.35-.3-30.524-.438-6.611-.087-13.222-.1-19.831-.208-2.409-.041-4.816-.394-7.223-.38-6.334.041-12.669.041-19-.036-11.082-.136-22.167-.126-33.25-.285-8.008-.112-15.977-.429-23.778-2.749-4.345-1.294-8.095-3.581-11.905-5.815-1.816-1.066-2.262-2.456-1.589-3.411.931-1.326,2.261-.985,3.468-.612,3.631,1.118,7.245,2.3,10.85,3.5,2.648.886,5.207,2.238,7.92,2.675a53.275,53.275,0,0,0,9.524.257c3.674-.079,7.347-.548,11.015-.508,8.778.1,17.553.37,26.328.626,6.877.2,13.75.5,20.627.706,4.939.151,9.873.8,14.825.2a30.721,30.721,0,0,1,9.124.285,17.651,17.651,0,0,0,6.081.139c4.823-.873,9.648-.514,14.474-.492q8.762.043,17.522.255a48.84,48.84,0,0,1,7.93.574,21.945,21.945,0,0,0,7.21.312,56.124,56.124,0,0,1,11.032-.191c3.3.186,6.611.456,9.918.473,12.872.065,25.742.032,38.612.069,1.392,0,2.785.213,4.176.348,3.548.345,7.087.908,10.643,1.012,6.237.184,12.489-.06,18.724.158,6.192.213,12.383-.076,18.581.374,4.814.35,9.678.145,14.516.033,3.685-.087,7.363-.512,11.048-.619a122.868,122.868,0,0,0,18.9-2.073c3.871-.719,7.7-1.723,11.6-2.221a45.934,45.934,0,0,0,11.751-3.074c2.234-.921,4.477-1.821,6.751-2.629a19.225,19.225,0,0,1,8.209-1.406,2.2,2.2,0,0,1,2.234,1.734,2.378,2.378,0,0,1-.954,2.7,15.576,15.576,0,0,1-2.658,1.458c-2.117.835-4.319,1.464-6.414,2.349-6.442,2.719-12.946,5.1-19.978,5.916-6.926.807-13.794,2.155-20.813,2.013a23.629,23.629,0,0,0-2.664.178,47.642,47.642,0,0,1-5.287.487c-9.918-.2-19.841.107-29.762-.364-6.225-.295-12.476.025-18.712-.118-3.805-.088-7.6-.771-11.4-.783-24.468-.074-48.938-.038-73.407-.038Zm-68.4-51.364.747-.162c1.607,4.6,4,8.6,8.215,11.083a2.262,2.262,0,0,1-.134.508c-2.967,4.44-5.888,8.9-6.971,14.264-.152.747-.771.886-1.44.974-3.055.4-5.672-.991-8.412-1.956a5.919,5.919,0,0,1-4.259-5.654c-.094-1.267-.336-2.522-.506-3.785-.648-4.779-1.04-9.606-2.754-14.182-.445-1.19-.827-2.4-1.2-3.618a44.343,44.343,0,0,0-10.4-17.079,43.739,43.739,0,0,0-14.781-9.913,17.3,17.3,0,0,0-4.029-1.054,1.636,1.636,0,0,0-1.8,1.144,1.869,1.869,0,0,0,.821,2.317,9.008,9.008,0,0,0,2.448,1.031,32.347,32.347,0,0,1,11.87,6.72c7.418,6.315,11.955,14.546,14.206,23.854a67.111,67.111,0,0,1,2.212,20.411,11.157,11.157,0,0,0,.077,1.907c.2,1.921.409,2.082,2.336,2.241,4.688.388,9.373.8,14.059,1.209,3.406.3,6.809.769,10.222.865,7.2.2,7.076,2.874,7.639,7.579a3.424,3.424,0,0,1,.032.38,1.362,1.362,0,0,1-1.35,1.523c-.886.073-1.781.044-2.671.035-5.094-.069-10.187-.109-15.279-.229-7.383-.173-14.764-.411-22.147-.612-4.331-.115-8.663-.208-13-.307-6.366-.147-12.73-.359-19.1-.419-7.006-.065-14.013.036-21.018.017-3.368-.009-3.894-.509-4.484-3.819a7.275,7.275,0,0,1-.161-1.135c-.079-4.2-.648-8.458-.1-12.572,1-7.55,2.429-15.064,4.109-22.5,1.232-5.444,3.391-10.674,4.708-16.1,1.918-7.919,5.817-14.871,9.967-21.707a74.179,74.179,0,0,1,5.589-7.186c.481-.607,1.031-.5,1.682-.2,2.993,1.365,6.048,2.6,9,4.042,3.954,1.923,7.794,3.041,11.55-.4.708-.649,1.4-.334,1.886.443.338.539.712,1.058,1.041,1.6a47.4,47.4,0,0,0,10.136,12.3c1.169.973,2.371,1.909,3.471,2.956a5.785,5.785,0,0,1,1.853,2.328,96.051,96.051,0,0,1,2.227,11.207,79.56,79.56,0,0,0,1.7,9.374,49.728,49.728,0,0,1,1.336,5.172c.363,2.8,2.3,4.489,4.084,6.231a2.972,2.972,0,0,0,4.778-1.064,21.026,21.026,0,0,0,1.2-4c.325-1.34.535-2.706.8-4.062ZM112.5,436.8c1.162-.708,1.639-1.048,2.157-1.308a22.6,22.6,0,0,0,7.86-7.027,21.906,21.906,0,0,0,4.324-15.08c-.074-1.118-.364-2.226.486-3.277,2.311-2.858,4.46-5.85,6.826-8.66a10.118,10.118,0,0,1,8.4-3.624c11.209.159,22.422.006,33.633.125,17.271.18,34.542.5,51.814.728,5.984.082,11.967.009,17.949.123,10.31.194,20.618.487,30.928.719a3.249,3.249,0,0,1,2.653,1.122c2.61,2.932,5.347,5.747,8.048,8.6a1.354,1.354,0,0,1,.26,1.706c-.318.686-.44,1.461-.73,2.166a19.714,19.714,0,0,0-1.195,9.015c.331,4.729,1.97,8.9,5.772,12.016a19.751,19.751,0,0,1,1.784,2.049c-3.316,0-5.983.065-8.646-.011-12.834-.351-25.666.26-38.5.006-6.617-.132-13.239-.014-19.859,0-6.587.019-13.173.314-19.762.139a6.018,6.018,0,0,0-1.144.025c-4.931.842-9.9.18-14.853.353-9.284.325-18.584.2-27.879.229q-23.5.061-47.006.072c-.839,0-1.678-.1-3.32-.2ZM192,228.672c0-.027,0-.054,0-.082-.381,0-.765,0-1.144,0a12.294,12.294,0,0,0-1.527.046,2.206,2.206,0,0,0-2.122,2.26c.055,1,.747,1.554,2.2,1.62,1.4.065,2.8.011,4.2.079a1.392,1.392,0,0,1,1.436,1.482,20.055,20.055,0,0,1-.4,5.306c-.891,2.922-1.549,5.886-2.249,8.849-1.025,4.328-2.524,8.534-3.058,12.993-.27,2.256-1.078,4.443-1.463,6.691a55.424,55.424,0,0,0-.631,6.07c-.162,2.7.9,5.2,1.354,7.788.951,5.373,1.5,10.823,2.888,16.122a3.318,3.318,0,0,1,.1.758c.26,8.933,2.8,17.563,3.525,26.436.041.5.284.98.366,1.482,1.322,8.293,2.71,16.578,3.93,24.888.924,6.3,1.687,12.618,2.9,18.881.82,4.232,1.14,8.562,1.638,12.853.131,1.133-.318,1.669-1.488,1.731-2.163.117-4.333.207-6.5.137a3.936,3.936,0,0,1-3.917-3.458c-.213-1.122-.158-2.311-.474-3.4-1.964-6.745-2.473-13.736-3.583-20.625-.928-5.766-1.862-11.532-2.915-17.277-.706-3.867-1.56-7.71-2.467-11.535a71.521,71.521,0,0,0-2.785-10.276c-1.75-4.347-4.064-8.471-6.157-12.676a7.028,7.028,0,0,0-1.044-1.592c-1.294-1.439-2.823-1.283-3.649.465-.816,1.721-1.414,3.545-2.152,5.306-.487,1.162-1.056,1.387-1.964.689-2.615-2.01-5.233-4.02-7.749-6.151s-4.9-4.392-7.338-6.6c-2.157-1.951-4.329-3.886-6.452-5.872-2.867-2.678-5.694-5.4-8.537-8.107a6.316,6.316,0,0,1-.807-.812c-.525-.719-.544-1.551.233-1.989a38.618,38.618,0,0,1,4.1-1.892c2.641-1.1,3.23-3.127,1.386-5.318a44.578,44.578,0,0,1-4.34-5.769c-1.306-2.183-2.7-4.316-4.012-6.493-1.571-2.6-3.1-5.221-4.657-7.832a2.466,2.466,0,0,1,.311-3.14c1.8-2.118,3.595-4.24,5.327-6.412,1.416-1.775,2.776-3.6,4.1-5.448,2.8-3.92,5.912-7.615,8.335-11.817a37.2,37.2,0,0,1,4.022-5.526c1.483-1.734,3.2-3.272,4.823-4.885,2.885-2.867,5.615-5.924,8.72-8.528a48.873,48.873,0,0,0,7.2-7.3,14.789,14.789,0,0,1,3.718-3.134,39.051,39.051,0,0,0,11.731-11.806,30.346,30.346,0,0,0,3.105-5.238c1.062-2.877,3.033-3.432,5.682-3.086.629.082,1.275.011,1.909.061,5.315.424,10.288,1.737,14.339,5.484.842.777,1.737,1.5,2.634,2.215a20.112,20.112,0,0,0,14.111,4.757c3.685-.21,7.391-.032,11.086-.095,1.266-.02,1.961.508,2.038,1.717.165,2.58,1.787,4.083,3.767,5.381a5.305,5.305,0,0,0,4.691.9,12.047,12.047,0,0,1,3-.478,1.32,1.32,0,0,1,1,.81c.448,3.482-1.2,5.75-4.544,6.226a92,92,0,0,1-19.027.88c-5.46-.355-10.933-.508-16.393-.821-1.639-.095-3.258-.462-4.891-.654-2.642-.311-5.281-.714-7.932-.828a5.384,5.384,0,0,0-5.345,3.017,2.353,2.353,0,0,1-2.063,1.642,11.809,11.809,0,0,1-3.357.1c-3.439-.665-6.62.44-9.689,1.537-3.447,1.233-4.336,4.554-2.658,7.848a8.264,8.264,0,0,0,4.793,4.119c3.343,1.212,6.778,1.037,10.194.522,3.644-.55,7.237-1.507,10.894-1.849a83.564,83.564,0,0,1,9.462.093,3.39,3.39,0,0,1,.733.214A50.8,50.8,0,0,0,223.775,222c3.22.139,3.594.768,2.174,3.625a4.167,4.167,0,0,1-4.172,2.694c-3.438-.1-6.88.049-10.318.011-3.95-.043-7.9-.266-11.846-.233-2.539.022-5.074.369-7.61.571Zm-44.539-21.311c-.26,1.414-.423,2.793-.775,4.124a53.182,53.182,0,0,1-2.526,8.386,57.88,57.88,0,0,1-6.348,10.837c-3.841,5.181-7.907,10.194-11.895,15.265-.475.605-.961.156-1.191-.246a16.458,16.458,0,0,1-1.1-2.427,137.922,137.922,0,0,1-5.444-17.427c-1.089-4.734-2.08-9.445-1.889-14.347a87.313,87.313,0,0,1,3.49-19.48c1.658-6.108,4.752-11.5,8.068-16.754a39.172,39.172,0,0,1,5.95-6.926c1.993-1.94,4.344-3.512,6.53-5.255a4.815,4.815,0,0,0,1.365-1.248,2.142,2.142,0,0,0,.161-1.751,2.078,2.078,0,0,0-1.6-.67,4.116,4.116,0,0,0-1.766.629,36.512,36.512,0,0,0-12.944,12.016c-.571.834-1.055,1.729-1.566,2.606-2.559,4.384-5.551,8.528-7.265,13.378-1.871,5.29-3.587,10.6-3.761,16.291-.271,8.931-.13,17.8,1.985,26.573,1.437,5.957,2.886,11.854,6.126,17.156a16.8,16.8,0,0,1,1.22,3.186,40.084,40.084,0,0,0,3.351,8.044c3.013,4.839,5.528,9.99,9.106,14.475a12.671,12.671,0,0,1,.9,1.515c-4.112,2.609-7.987,5.012-11.807,7.5-6.165,4.016-12.857,7.156-18.86,11.453-2.267,1.624-4.777,2.905-7.157,4.376-.8.49-1.358.478-1.868-.4-.957-1.65-1.979-3.26-2.971-4.89-1.931-3.168-2.872-6.776-4.472-10.082-2.589-5.355-5.553-10.529-7.3-16.261a6.59,6.59,0,0,0-.8-1.717c-2.3-3.416-3.627-7.284-5.1-11.067a162.514,162.514,0,0,1-5.81-16.113,112.573,112.573,0,0,1-3.921-27.514c-.034-1.783.067-3.567.031-5.35-.118-5.919,1.461-11.581,2.7-17.281.588-2.711,1.857-5.269,2.558-7.965,1.741-6.7,4.913-12.78,7.952-18.914a82.7,82.7,0,0,1,4.983-8.539c1.376-2.1,3.17-3.923,4.617-5.983a62.378,62.378,0,0,1,15.655-15.438c2.593-1.8,5.372-3.343,8.132-4.885,1.2-.67,2.623-.937,3.847-1.574a80.648,80.648,0,0,1,18.061-6.827c5.675-1.394,11.417-2.513,17.132-3.74,1.234-.265,2.663-.967,3.67-.587,1.13.426,1.9,1.835,2.8,2.842,4.065,4.543,8.427,8.732,13.783,11.77a20.3,20.3,0,0,1,2.446,1.822,22.241,22.241,0,0,0,7.8,3.852c2.552.725,5.211,1.075,7.823,1.6a46.847,46.847,0,0,0,25.518-2.1,70.116,70.116,0,0,0,21.9-12.78,5.734,5.734,0,0,1,3.469-1.258c3.438-.326,6.45,1.256,9.636,1.992a31.081,31.081,0,0,1,6.757,2.479,27.369,27.369,0,0,1,5.722,3.749,85.818,85.818,0,0,1,9.049,8.629,166,166,0,0,1,13.012,18.255c.9,1.388,1.717,2.783,2.476,4.241.82,1.572,1.8,3.058,2.729,4.57,1.594,2.6,3.253,5.154,4.787,7.784,1.975,3.389,3.963,6.78,5.75,10.268,2.42,4.721,5.8,9,6.78,14.407a2.439,2.439,0,0,1-.624.363c-7.818,1.758-15.613,3.581-23.272,5.971-3.271,1.02-6.65,1.691-9.975,2.538-1.715.437-3.458.8-5.123,1.389-3.947,1.395-7.823,2.993-11.784,4.339-4.44,1.508-8.974,2.735-13.406,4.264a82.183,82.183,0,0,1-12.946,3.217,17.852,17.852,0,0,1-4.538-.2c-2.016-.184-4.021-.531-6.04-.659-1.8-.11-3.537-.173-5.025-1.438a9.159,9.159,0,0,0-2.074-.944q-5.854-2.752-11.7-5.528a2.346,2.346,0,0,1-.91-.671,1.548,1.548,0,0,1-.2-.991.712.712,0,0,1,.539-.441,38.064,38.064,0,0,1,5.169.361c4.869.911,9.7,2.107,14.719,1.515a5.03,5.03,0,0,1,1.507,0c7.59,1.449,15.224,1.114,22.831.38,2.61-.252,5.154-1.274,7.713-2a4.231,4.231,0,0,0,3.045-3.146c1.114-4.313,2.271-8.625,2.317-13.135.028-2.787-1-4.391-3.711-4.926a19.118,19.118,0,0,0-5.687-.331c-7.755.846-15.528.449-23.294.544a14.474,14.474,0,0,1-5.881-1.386c-2.788-1.179-4.789-3.334-7.007-5.189a21.786,21.786,0,0,0-10.162-4.956c-3.7-.667-7.394-1.888-11.3-.711a18.33,18.33,0,0,1-5.309.377c-7.765-.05-15.529-.161-23.3-.263a5.108,5.108,0,0,0-3.526,1.176c-1.852,1.546-3.794,2.987-5.659,4.519q-5.433,4.469-10.818,8.991c-3.018,2.527-6.088,5-8.992,7.651a10.661,10.661,0,0,0-3.348,5.465,4.147,4.147,0,0,0,.555,3.274,5.852,5.852,0,0,0,5.537,2.738c3.923-.06,7.844-.273,12-.43Zm133.98,62.1c-.317,1.956-.541,3.428-.8,4.9-.5,2.872-1.176,5.723-1.505,8.616a135.65,135.65,0,0,1-3.6,20.19,3.01,3.01,0,0,0-.134.358c-.405,3.063-1.321,3.744,3.13,4.059,12.348.873,24.714.591,37.064.995,5.208.17,10.41.768,15.638.672.511-.009,1.021.025,1.531.016,2.226-.043,2.572-.211,3.266-2.405.842-2.669,1.612-5.366,2.257-8.088q1.5-6.32,2.768-12.691c1.7-8.488,3.833-16.869,6-25.241,1.814-7,3.818-13.958,5.612-20.966a28.813,28.813,0,0,0,.779-6.045,4.109,4.109,0,0,1,2.629-4.1c4.808-2.276,9.47-4.855,14.215-7.265,1.125-.571,2.358-.932,3.525-1.428,2.073-.88,2.563-1.906,1.7-4.176a1.8,1.8,0,0,1,.262-2.035,10.852,10.852,0,0,1,3.993-3.447c1.253-.6,2.434-1.368,3.714-1.9a3.656,3.656,0,0,1,2.166-.2,29.747,29.747,0,0,0,9.878.454,8.882,8.882,0,0,0,3.562-1.163c3.127-1.767,3.763-3.551,2.484-6.966a1.973,1.973,0,0,1,.356-2.39,15.243,15.243,0,0,0,1.1-1.055c.548-.675.966-1.9,1.565-1.985.859-.12,1.835.569,2.752.933a5.317,5.317,0,0,1,1.712.787c1.978,1.88,4.418,2.4,7,2.565.9.058,1.844.072,2.183,1.143,1.553,4.915,5.433,7.67,9.674,9.77a26.681,26.681,0,0,0,25.6-.465c5.673-3.039,8.983-7.656,10.08-14.319s1.88-13.349,2.61-20.045c.527-4.8.659-9.653.9-14.486.087-1.734-.1-1.844-1.921-2.073a52.609,52.609,0,0,0-12.189-.3,23.355,23.355,0,0,1-8.737-.3,12,12,0,0,0-2.659-.251c-4.834-.206-9.67-.369-14.5-.6-1.906-.091-3.805-.322-5.709-.473a17.311,17.311,0,0,0-2.284-.1c-2.256.12-2.5.246-2.948,2.6-.235,1.228-.75,1.806-1.945,1.885a14.117,14.117,0,0,0-1.895.224c-3.5.72-6.975,1.5-9.32,4.587-.665.873-1.327.854-2.241.15a43.825,43.825,0,0,0-14.139-7.287,55.9,55.9,0,0,0-8.217-1.488c-2.494-.363-4.752.684-7.038,1.461a2.576,2.576,0,0,0-.977.582c-1.869,1.876-3.813,3.695-5.537,5.7s-3.22,4.231-4.847,6.335c-.463.6-1.039,1.113-1.564,1.666a1.241,1.241,0,0,1-1.641.422c-2.122-1.036-4.027.107-5.818.922-3.223,1.468-6.365,3.137-9.451,4.882-6.521,3.69-12.982,7.481-19.468,11.234-2.309,1.335-4.522,2.866-7.32,3.088a2.388,2.388,0,0,1-2.588-1.026,59.042,59.042,0,0,1-5.479-8.608c-1.334-2.862-3.094-5.525-4.667-8.275-2.186-3.827-4.33-7.68-6.57-11.475-3.936-6.663-7.613-13.484-12.185-19.754-2.166-2.972-4.3-5.967-6.464-8.942a75.465,75.465,0,0,0-12.479-12.77c-3.083-1.184-5.429-3.675-8.657-4.687-3.014-.945-5.883-2.35-8.83-3.518-.941-.374-1.936-.607-2.881-.967a6.757,6.757,0,0,1-1.154-.712,6.322,6.322,0,0,1,.908-1.129,16.279,16.279,0,0,0,3.632-3.858,28.9,28.9,0,0,0,5.115-13.758c.526-6.363.142-12.7-.091-19.052-.085-2.283-.311-4.565-.583-6.834a1.869,1.869,0,0,1,1.225-2.093,12.032,12.032,0,0,0,2.584-1.487,20.019,20.019,0,0,0,6.871-13.906c.21-3.047.29-6.1.345-9.158.017-.95.44-1.273,1.247-1.6,4.235-1.7,8.625-3.057,12.407-5.76,2.792-2,5.1-4.4,5.37-7.935.386-4.99-.569-8-5.176-10.477a6.983,6.983,0,0,0-3.241-.867c-5.58.064-11.19-.533-16.712,1.029-2.667.756-5.5.938-8.233,1.477a2.378,2.378,0,0,1-2.082-.56,124.41,124.41,0,0,0-10.083-7.426,71.086,71.086,0,0,0-13.124-6.029,53.551,53.551,0,0,0-5.493-1.631c-1.46-.35-3.066-.443-4.483-.918a10.911,10.911,0,0,0-1.759-.555c-1.713-.29-3.43-.571-5.151-.816a74.889,74.889,0,0,0-10.355-.861,38.452,38.452,0,0,0-10.367,1.28c-.692.192-1.3.519-2,.657-.812.16-1.617.35-2.413.574A32.637,32.637,0,0,0,176.5,4.218a37.65,37.65,0,0,0-3.38,1.754,8.422,8.422,0,0,1-1.726.81c-4.13,1.264-7.147,4.252-10.5,6.718-.962,2.5-3.51,3.569-5.035,5.571a59.024,59.024,0,0,0-3.921,6.473c-2.061,3.571-3.232,7.432-4.762,11.183a25.628,25.628,0,0,0-1.46,12.711c.382,3.531.687,7.083,2.541,10.28a13.441,13.441,0,0,1,.817,2.93,18.455,18.455,0,0,0,.953,2.875c2.489,5.151,5.065,10.26,7.546,15.416,1.269,2.633,2.271,5.4,3.641,7.978.769,1.449,1.5,2.894,2.186,4.383a4.456,4.456,0,0,1,.3,3.308c-1.009,3.416-2.04,6.826-3.023,10.249a2.875,2.875,0,0,1-2.144,1.914c-4.577,1.677-9.393,2.227-14.135,3.13-2.122.4-4.289.648-6.357,1.24-4.874,1.4-9.774,2.627-14.547,4.48-4.733,1.839-9.388,3.863-14.057,5.834a37.5,37.5,0,0,0-7.811,4.722,75.777,75.777,0,0,0-15.12,14.988c-2.128,2.836-4.574,5.52-6.188,8.631-1.323,2.547-3.9,4.341-4.305,7.381-3.174,3.77-4.726,8.411-6.463,12.859a145.045,145.045,0,0,0-6.305,21.182c-2.091,9.369-1.666,18.742-.641,28.125a108.889,108.889,0,0,0,2.372,13.447c1.033,4.321,2.467,8.553,3.876,12.776,3.216,9.637,7.509,18.825,11.839,28,1.411,2.987,2.672,6.045,4.052,9.048a1.549,1.549,0,0,1-.467,1.992c-2.649,2.716-5.41,5.348-7.814,8.271a74.726,74.726,0,0,0-9.247,13.409c-2.366,4.648-5.164,9.084-6.333,14.26a1.12,1.12,0,0,1-.762.7c-.239.032-.685-.326-.782-.6a20.928,20.928,0,0,1-1.2-4.013c-.577-4.347-2.342-8.327-3.812-12.369-2.041-5.61-4.449-11.091-6.8-16.584-2.05-4.779-4.206-9.513-6.39-14.232-1.01-2.183-2.183-4.291-3.312-6.417C34.258,262.322,31,255.443,26.55,249.22c-1.689-2.364-2.932-5.047-4.421-7.558-.753-1.269-1.324-2.984-3.333-2.405-1.942.56-1.738,2.4-1.767,3.833-.07,3.564.078,7.133.153,10.7.11,5.216.493,10.408.972,15.61.618,6.709.659,13.469.994,20.206a132.1,132.1,0,0,0,2.384,17.3c.758,4.119,1.69,8.208,2.554,12.306A111.138,111.138,0,0,0,32.471,343.7a69.146,69.146,0,0,1,2.749,6.712c2.317,6.644,5.833,12.678,9.326,18.731.444.769.814,1.581,1.215,2.375,1.414,2.817,2.108,6.029,4.6,8.261a1.034,1.034,0,0,1,.132,1,1.147,1.147,0,0,1-1.012.194c-3.881-1.2-7.732-2.489-11.628-3.635a15.778,15.778,0,0,0-4.106-.608c-4.723-.087-6.137,5.342-4.247,8.329a11.4,11.4,0,0,0,4.893,4.152c3.207,1.526,6.458,2.981,9.767,4.265,4.03,1.564,8.332,2.144,12.547,2.946,6.782,1.291,13.706.906,20.562,1.34a4.839,4.839,0,0,1,3.969,1.728c2.053,2.568,4.238,5.03,6.409,7.5a1.97,1.97,0,0,1,.243,2.688,20.262,20.262,0,0,0-2.444,11.411c.317,5.634,2.419,10.35,7.354,13.5a16.394,16.394,0,0,1,1.82,1.384.743.743,0,0,1,.195.646.707.707,0,0,1-.545.361c-2.165.065-4.33.128-6.495.131q-21.03.04-42.06.055c-4.207,0-8.414.016-12.62-.022a3.908,3.908,0,0,1-1.27-.493c.149-.326.215-.757.466-.965a13.879,13.879,0,0,0,4.206-7.1,8.075,8.075,0,0,1,.362-1.081,1.9,1.9,0,0,1,2.441-1.281c1.238.277,2.444.7,3.666,1.05a10.771,10.771,0,0,0,2.179.56,1.851,1.851,0,0,0,2.054-2.435c-.4-1.6-1-3.146-1.416-4.74-.192-.724.189-1.2,1-1.234,2.67-.1,4.928,1.151,7.117,2.382a35.459,35.459,0,0,1,4.2,3.244,21.09,21.09,0,0,0,2.139,1.6,1.451,1.451,0,0,0,2.325-1.36A8.6,8.6,0,0,0,62,422.7c-1-2.472-2.094-4.9-3.155-7.345a5.393,5.393,0,0,1-.608-1.39c-.093-.85-.32-1.918.076-2.527.555-.856,1.609-.247,2.424.021a35.992,35.992,0,0,1,17.334,12.514,9.28,9.28,0,0,0,1.169,1.455,1.159,1.159,0,0,0,1.059-.02,1.127,1.127,0,0,0,.491-.911,10.708,10.708,0,0,0-2.585-5.02,38.763,38.763,0,0,0-15.458-10.8,15.262,15.262,0,0,0-6.011-.728,1.928,1.928,0,0,0-2.005,1.9,10.023,10.023,0,0,0,.729,5.955,22.757,22.757,0,0,1,1.023,2.459.813.813,0,0,1-.12.689.723.723,0,0,1-.637.09,3.625,3.625,0,0,1-1.015-.528c-2.319-1.769-5.108-2.249-7.853-2.684-3.17-.5-5.112,1.116-4.859,4.146.064.758.248,1.512.248,2.268a.936.936,0,0,1-.67.637c-1.01-.058-2.012-.252-3.02-.38a4.27,4.27,0,0,0-4.908,2.721c-.71,1.624-1.534,3.2-2.221,4.83a12.982,12.982,0,0,1-4.923,5.682,8.846,8.846,0,0,1-5.42,1.526c-3.054-.125-6.117-.1-9.176-.08a6.9,6.9,0,0,0-2.605.385A1.729,1.729,0,0,0,8.139,439.7a2.857,2.857,0,0,0,1.508,1.512,8.006,8.006,0,0,0,2.642.208q8.8.014,17.593-.011,11.464-.031,22.93-.091c6.62-.025,13.239-.006,19.858-.082,12.981-.148,25.961-.385,38.943-.514,7.773-.077,15.547-.014,23.321-.024,5.731-.006,11.469.147,17.191-.087,5.594-.229,11.179-.252,16.773-.208,8.023.06,16.046-.065,24.07-.115,8.539-.055,17.074-.148,25.611-.167,16.445-.035,32.887-.009,49.331-.05,8.529-.022,17.06-.046,25.586-.232,8.115-.175,16.226-.052,24.336-.11,7.763-.058,15.525-.225,23.288-.314,4.073-.047,8.148-.077,12.221-.028,3.791.044,7.572-.437,11.366-.095a3.6,3.6,0,0,0,1.866-.192,1.994,1.994,0,0,0,1.053-1.375,2.611,2.611,0,0,0-.886-1.9,4.137,4.137,0,0,0-2.215-.334c-10.564.1-21.127.254-31.691.334-3.428.025-6.857-.154-10.288-.178-1.39-.011-2.784.177-4.179.2a4.558,4.558,0,0,1-1.272-.374,7.288,7.288,0,0,1,.8-1.2c1.154-1.168,2.415-2.235,3.52-3.447a21.417,21.417,0,0,0,5.786-17.185,4.87,4.87,0,0,1,1.5-4.406c2.065-2.04,3.895-4.317,5.924-6.4a7.547,7.547,0,0,1,4.395-2.033,47.112,47.112,0,0,1,7.929-.626c7.156.021,14.133-1.326,21.078-2.908,4.072-.928,8.227-1.527,12.262-2.591,5.515-1.455,10.966-3.167,15.473-6.942.873-.73,1.975-1.2,2.79-1.98,2.109-2.016,2.776-4.453.719-7.12a6.312,6.312,0,0,0-5.115-2.79,19.656,19.656,0,0,0-8.575,1.426c-3.736,1.6-7.557,3-11.362,4.429a2.161,2.161,0,0,1-1.39-.188c-.117-.046-.08-.659,0-.982,1.78-7.427-.757-13.764-5.184-19.478a22.793,22.793,0,0,0-10.838-7.454,89.675,89.675,0,0,0-15.146-3.878c-5.14-.826-10.309-1.915-14.751-4.8a60.25,60.25,0,0,1-9.339-7.2,7.522,7.522,0,0,0-6.895-2.213c-1.513.214-3,.588-4.508.824-1.086.172-1.6-.233-1.4-1.143.591-2.73.1-3.3.846-5.988.47-1.683.921-1.909,2.811-1.918,2.676-.014,5.356.125,8.031.055,3.807-.1,7.612-.3,11.414-.53a2.343,2.343,0,0,0,2.42-1.54c.954-3.294,1.9-6.6,2.763-9.915.306-1.181-.076-1.6-1.352-1.679-4.321-.282-8.64-.563-12.963-.768-9.034-.429-18.066-.862-27.1-1.193-5.6-.2-11.215-.208-16.824-.329a1.778,1.778,0,0,0-2.022,1.754c-.569,3.51-1.293,7-1.778,10.517-1.116,8.082-2.338,13.742-3.9,21.723-1.173,6.006-2.525,11.95-4.133,17.85-.766,2.817-1.133,5.739-1.743,8.6-.347,1.617-.8,3.209-1.239,4.806-.635,2.325-1.326,4.636-1.944,6.966-.66,2.5-1.159,2.74-3.734,2.613-3.162-.156-6.337-.046-9.5-.084-.353,0-.991-.227-1-.369a1.741,1.741,0,0,1,.378-1.228,20.719,20.719,0,0,1,2.662-2.166c4.729-3.186,6.956-7.974,8.417-13.209a52.832,52.832,0,0,0,1.337-6.745c.284-2.007.374-4.046.456-6.077a56.735,56.735,0,0,0,.118-8c-.556-5.441-1.283-10.876-2.212-16.267-1.01-5.881-2.42-11.691-3.49-17.564a114.805,114.805,0,0,0-5.563-19.39,34.984,34.984,0,0,1-1.242-4.406c-1.425-6.209-3.9-12.041-6.2-17.951a63.539,63.539,0,0,1-3.23-8.919c-.6-2.648-2.238-5.057-3.365-7.594-.084-.192.188-.616.4-.831.08-.082.506.069.684.221a2.8,2.8,0,0,1,.692.853c1.007,2.051,2.052,4.084,2.954,6.182,1.5,3.495,2.836,7.062,4.368,10.544,1.841,4.188,3.83,8.313,5.722,12.482.449.991,1.132.87,1.866.523,4.929-2.328,9.866-4.637,14.763-7.029,2.393-1.168,4.711-2.49,7.057-3.756,3.447-1.858,6.891-3.726,11.054-5.979Z" transform="translate(4.633 0)" fill="#16161d" fill-rule="evenodd"/>
      <path id="Tracé_7" data-name="Tracé 7" d="M328.691,109.067c-1.824-1.709-3.282-3.083-4.749-4.446a17.271,17.271,0,0,0-8.761-4.368A67.937,67.937,0,0,0,300,99.582a23.253,23.253,0,0,1-9.708-1.518,45.722,45.722,0,0,1-9.19-5.322c-4.428-3.083-8.542-6.912-14.35-7.341-9.262-2.639-18.357-1.637-27.394,1.176a37.531,37.531,0,0,1-5.954,1.282c-5.074.7-10.134.107-15.187-.379a7.263,7.263,0,0,1-5.413-3.266c-2.262-3.435-3.956-7.1-2.338-11.459.556-1.5,1.294-2.51,2.869-2.587a21.32,21.32,0,0,1,7.93.655c3.845,1.269,7.765,2.306,11.661,3.415a14.737,14.737,0,0,0,6.8.558c3.737-.7,7.513-1.322,11.158-2.37a57.423,57.423,0,0,1,16.9-2.42,16.065,16.065,0,0,1,9.968,3.1A16.237,16.237,0,0,1,279.77,74.8c1.661,1.757,3.156,3.682,4.912,5.331,2.3,2.162,4.59,4.5,7.719,5.394,3.414.976,6.912,1.68,10.4,2.378,2.733.547,5.534.775,8.257,1.377,3.657.808,7.09,2.3,9.555,5.2,2.125,2.5,3.881,5.31,5.805,7.98a14.491,14.491,0,0,1,2.275,6.606Zm-26.054-5.883c1.14-.077,2.281-.159,3.424-.231a28.168,28.168,0,0,1,12.32,2.063c2.379.951,4.13,2.9,5.842,4.812,2.193,2.457,4.491,4.821,6.762,7.207a5.8,5.8,0,0,0,1.193.934,1.306,1.306,0,0,0,2.046-.893,17.15,17.15,0,0,0-.251-4.513,60.838,60.838,0,0,0-1.862-6.18,38.889,38.889,0,0,0-6.08-11.29c-1.534-2.026-2.836-4.193-5.022-5.6-3.881-2.493-7.971-4.445-12.673-4.747a78.459,78.459,0,0,1-13.11-2.393,13.192,13.192,0,0,1-6.5-3.815c-2.026-2.11-4.083-4.193-6.065-6.343-3.159-3.424-7.092-5.067-11.644-5.909-5.7-1.052-11.138-.046-16.592,1.2-3.583.817-7.123,1.829-10.67,2.8A20.239,20.239,0,0,1,231,70.026c-3.684-1.392-7.5-2.27-11.27-3.319-1.7-.473-3.452-.754-5.189-1.071a7.3,7.3,0,0,0-7.15,2.734,11.683,11.683,0,0,0-2.978,6.843,15.538,15.538,0,0,0,4.2,11.51A13.869,13.869,0,0,0,213.7,89.9a30.883,30.883,0,0,0,14.21,2.05c1.393-.114,2.8-.054,4.188-.219a51.318,51.318,0,0,0,5.616-.912c2.968-.692,5.889-1.591,8.852-2.306,6.357-1.534,12.643-.795,18.86.82a23.562,23.562,0,0,1,8.747,4.528c1.885,1.5,3.7,3.1,5.659,4.488a17.843,17.843,0,0,0,3.717,1.871,45.78,45.78,0,0,0,19.084,2.968Z" transform="translate(117.787 37.753)" fill="#16161d" fill-rule="evenodd"/>
      <path id="Tracé_8" data-name="Tracé 8" d="M3.88,257.352c-.024,2.153.913,3.531,2.7,3.969,1.952.476,3.307-.181,4.293-2.089.835-1.614.422-3.318-1.233-5.076a3.312,3.312,0,0,0-3.5-.437,3.934,3.934,0,0,0-2.258,3.632Z" transform="translate(2.236 146.034)" fill="#16161d" fill-rule="evenodd"/>
      <path id="Tracé_9" data-name="Tracé 9" d="M15.88,267.778a5.967,5.967,0,0,0,1.189,1.647,1.955,1.955,0,0,0,2.435-.194c1.873-1.415,2.658-3.536.186-5.145a2.023,2.023,0,0,0-1.678-.107C16.679,264.614,15.987,265.776,15.88,267.778Z" transform="translate(9.151 152.049)" fill="#16161d" fill-rule="evenodd"/>
      <path id="Tracé_10" data-name="Tracé 10" d="M5.435,271.6c.055-1.4-1.242-3.042-2.374-3A3.8,3.8,0,0,0,0,271.542a2.982,2.982,0,0,0,2.658,2.765A3.319,3.319,0,0,0,5.434,271.6Z" transform="translate(0 154.788)" fill="#16161d" fill-rule="evenodd"/>
      <path id="Tracé_11" data-name="Tracé 11" d="M134.988,124.694a3.746,3.746,0,0,0,3.75-4.893,16.93,16.93,0,0,0-1.062-2.435,2.271,2.271,0,0,0-2.2-1.209c-1.021-.071-1.3.218-1.08,1.316a9.94,9.94,0,0,1,.389,1.836,1.578,1.578,0,0,1-.545,1.239,1.485,1.485,0,0,1-1.343-.254c-1.014-.954-1.9-2.044-2.874-3.042a6,6,0,0,0-1.469-1.16,1.37,1.37,0,0,0-1.981,1.431,3.8,3.8,0,0,0,.028.381C127.2,120.922,131.891,124.717,134.988,124.694Z" transform="translate(72.938 66.811)" fill="#16161d" fill-rule="evenodd"/>
      <path id="Tracé_12" data-name="Tracé 12" d="M172.648,268.612c-.779-.142-1.382-.235-1.981-.361-3.523-.75-4.7-.363-6.707,2.711a20.41,20.41,0,0,1-5.317,5.369c-1.225.884-2.653,1.486-3.961,2.264-.3.175-.476.548-.709.829.375.3.747.872,1.125.873,4.828.032,8.923-1.579,11.855-5.582.668-.911,1.042-2.415,1.882-2.714s2.111.534,3.171.924c3.041,1.116,5.192-.334,5.361-3.644.028-.508-.006-1.018.008-1.527.076-2.539.813-3.157,3.285-2.259a25.94,25.94,0,0,1,9.008,5.567c1.195,1.129,2.226,2.437,3.441,3.543a1.783,1.783,0,0,0,1.625.325,1.817,1.817,0,0,0,.7-1.573,7.1,7.1,0,0,0-1.313-2.688,29.268,29.268,0,0,0-11.962-9.117,11.52,11.52,0,0,0-4.839-.782,4.354,4.354,0,0,0-4.393,3.936,19.014,19.014,0,0,0-.117,1.9c-.044.619-.1,1.237-.167,2Z" transform="translate(88.73 150.269)" fill="#16161d" fill-rule="evenodd"/>
      <path id="Tracé_13" data-name="Tracé 13" d="M150.693,264.141c-1.606.035-2.333.769-2.276,2.3a2.089,2.089,0,0,0,2.426,2.215,2.146,2.146,0,0,0,2.278-2.391c.014-1.5-.739-2.161-2.427-2.125Z" transform="translate(85.527 152.218)" fill="#16161d" fill-rule="evenodd"/>
      <path id="Tracé_14" data-name="Tracé 14" d="M141.12,273.577a2.162,2.162,0,0,0,1.906,2.347,2.741,2.741,0,0,0,2.736-2.858,1.964,1.964,0,0,0-1.917-1.887,2.427,2.427,0,0,0-2.725,2.4Z" transform="translate(81.323 156.275)" fill="#16161d" fill-rule="evenodd"/>
      <path id="Tracé_15" data-name="Tracé 15" d="M140.371,57.25c-.476.279-1.28.476-1.427.9a2.738,2.738,0,0,0,.106,2.132,13.741,13.741,0,0,0,4.875,4.3,16.823,16.823,0,0,0,7.15,1.5,21.621,21.621,0,0,0,3.285-.143,16.677,16.677,0,0,0,4.379-1.089,4.812,4.812,0,0,0,1.958-1.674,1.672,1.672,0,0,0-1.266-2.76c-1-.106-2.024-.079-3.034-.1a41.882,41.882,0,0,1-13.714-2.385c-.7-.26-1.434-.424-2.312-.678Z" transform="translate(79.976 32.995)" fill="#16161d" fill-rule="evenodd"/>
      <path id="Tracé_16" data-name="Tracé 16" d="M143.719,14.921c1.775-.089,3.554-.122,5.323-.292a.971.971,0,0,0,.881-1.368c-1-2.851-.793-2.921-3.591-2.927s-5.6.006-8.4.064c-1.357.029-1.764.611-1.546,1.97.3,1.857.772,2.31,2.744,2.388,1.524.06,3.053.011,4.579.011l0,.155Z" transform="translate(78.566 5.958)" fill="#16161d" fill-rule="evenodd"/>
      <path id="Tracé_17" data-name="Tracé 17" d="M200.914,272.34c-1.43.035-3.008-1.958-3.009-3.8a3.635,3.635,0,0,1,3.622-3.621,3.387,3.387,0,0,1,3.313,3.422,4.588,4.588,0,0,1-3.926,4Zm.249,6.326a7.415,7.415,0,0,0,6.772-3.714c3.126-4.833,2.889-9.273-.3-13.8a5.117,5.117,0,0,0-5.7-2.065,12.225,12.225,0,0,0-8.715,6.732,7.057,7.057,0,0,0-.6,2.568,11.51,11.51,0,0,0,3.1,8.357C196.806,278.035,198.742,278.662,201.163,278.666Z" transform="translate(110.982 149.205)" fill="#16161d" fill-rule="evenodd"/>
      <path id="Tracé_18" data-name="Tracé 18" d="M71.429,268.454c-.013-2.15,1.17-3.463,3.149-3.5,2.063-.033,3.111,1.088,3.176,3.4.055,1.97-1.109,3.343-2.809,3.316a3.3,3.3,0,0,1-3.516-3.217Zm2.785,9.566c2.749.415,4.612-1.072,6.313-3.182a11.432,11.432,0,0,0-.416-14.612,3.862,3.862,0,0,0-2.576-1.423c-5.3-.545-9.323,2.2-11.656,6.819a5.756,5.756,0,0,0-.43,2.224,11.4,11.4,0,0,0,2.827,8.069,6.227,6.227,0,0,0,5.938,2.106Z" transform="translate(37.706 149.103)" fill="#16161d" fill-rule="evenodd"/>
      <path id="Tracé_19" data-name="Tracé 19" d="M116.116,21.69a2.765,2.765,0,0,0,3.006-2.633c.039-1.5-1.3-3.307-2.476-3.347a3.991,3.991,0,0,0-3.523,3.336A2.788,2.788,0,0,0,116.116,21.69Z" transform="translate(65.187 9.055)" fill="#16161d" fill-rule="evenodd"/>
      <path id="Tracé_20" data-name="Tracé 20" d="M108.648,21.634a3.054,3.054,0,0,0,2.673-2.725c-.035-1.415-1.895-2.9-3.49-2.795a2.747,2.747,0,0,0-2.6,2.719,3.144,3.144,0,0,0,3.414,2.8Z" transform="translate(60.643 9.286)" fill="#16161d" fill-rule="evenodd"/>
    </g>
    <line id="Ligne_34" data-name="Ligne 34" x2="83" transform="translate(1294.5 2818.5)" fill="none" stroke="#16161d" stroke-width="1"/>
    <line id="Ligne_35" data-name="Ligne 35" x2="106" transform="translate(1319.5 2752.5)" fill="none" stroke="#16161d" stroke-width="1"/>
    <line id="Ligne_32" data-name="Ligne 32" x2="40" transform="translate(1259.5 2916.5)" fill="none" stroke="#16161d" stroke-width="1"/>
    <line id="Ligne_29" data-name="Ligne 29" x1="117" transform="translate(1139.5 3023.5)" fill="none" stroke="#16161d" stroke-width="1"/>
    <line id="Ligne_30" data-name="Ligne 30" x2="99" transform="translate(1148.5 3075.5)" fill="none" stroke="#16161d" stroke-width="1"/>
    <line id="Ligne_31" data-name="Ligne 31" x2="75" transform="translate(1189.5 2956.5)" fill="none" stroke="#16161d" stroke-width="1"/>
    <line id="Ligne_28" data-name="Ligne 28" x2="68" transform="translate(1179.5 3127.5)" fill="none" stroke="#16161d" stroke-width="1"/>
    <line id="Ligne_33" data-name="Ligne 33" x2="60" transform="translate(1299.5 2870.5)" fill="none" stroke="#16161d" stroke-width="1"/>
  </g>
</svg>
