<svg xmlns="http://www.w3.org/2000/svg" width="20.47" height="20.113" viewBox="0 0 20.47 20.113" fill="#fcfaf9">
  <g id="sun-shape-svgrepo-com" transform="translate(0 -2.552)">
    <path id="Tracé_2" data-name="Tracé 2" d="M15.481,12.647a5.054,5.054,0,1,1-5.053-5.054A5.059,5.059,0,0,1,15.481,12.647ZM10.428,5.669a.506.506,0,0,0,.505-.505V3.057a.506.506,0,0,0-1.011,0V5.164A.505.505,0,0,0,10.428,5.669Zm5.03,2.569a.5.5,0,0,0,.357-.148l1.811-1.81a.505.505,0,0,0-.714-.716L15.1,7.376a.505.505,0,0,0,.357.863ZM4.233,8.091a.505.505,0,0,0,.715-.715L3.137,5.565a.505.505,0,0,0-.714.716Zm5.791,11.457a.505.505,0,0,0-.505.505v2.106a.506.506,0,0,0,1.011,0V20.053A.506.506,0,0,0,10.024,19.547ZM4.636,17.126,2.825,18.937a.505.505,0,1,0,.715.714l1.811-1.811a.505.505,0,0,0-.715-.714Zm11.582,0a.505.505,0,1,0-.715.714l1.811,1.811a.505.505,0,1,0,.715-.714ZM3.286,12.647a.506.506,0,0,0-.506-.505H.505a.505.505,0,0,0,0,1.011H2.78A.506.506,0,0,0,3.286,12.647Zm16.678-.505h-2.7a.505.505,0,0,0,0,1.011h2.7a.505.505,0,1,0,0-1.011Z" transform="translate(0)"/>
  </g>
</svg>
